<?xml version="1.0" encoding="utf-8"?>
<!-- Generator: Adobe Illustrator 28.3.0, SVG Export Plug-In . SVG Version: 6.00 Build 0)  -->
<svg version="1.1" id="レイヤー_2" xmlns="http://www.w3.org/2000/svg" xmlns:xlink="http://www.w3.org/1999/xlink" x="0px"
	 y="0px" viewBox="0 0 1122.43 952.17" style="enable-background:new 0 0 1122.43 952.17;" xml:space="preserve">
<style type="text/css">
	.st0{fill:#3ECFB2;}
	.st1{fill:#FFFFFF;}
	.st2{fill:#1C212A;}
	.st3{fill:none;stroke:#1C212A;stroke-width:4;stroke-miterlimit:10;}
</style>
<g>
	<g>
		<path class="st0" d="M1090.31,601.35c17.27,102.88,26.37,239.01,22.22,359.07c-109.81,0-218.81,0.77-332.25,0.77
			c0-140.13,11.75-221.47,18.11-318.19C891.5,677.48,1002.06,635.79,1090.31,601.35z"/>
		<path class="st1" d="M679.24,300.36c-3.3-37.15,0-64.1,56.43-89.84c14.19,9.19,27.62,11.75,43.37,5.82
			c2.08,4.26,4.17,8.51,6.25,12.77c-2.69,1.01-2.42,2.05-5.1,3.06c38.94,38.54,102.43-9.82,71.54-58.26
			c71-10.69,150.85-1.08,192.06,63.03c47.38,56.77,112.91,232.72,37.79,294.05c37.85,84.01-15.66,85.7-19.52,88.21
			c-86.58,56.3-218.2,58.25-266.5,20.51c-14.08-11.32-19.36-27.72-16.65-65.28C759.54,474.84,688.47,404.2,679.24,300.36z"/>
		<g>
			<path class="st1" d="M818.05,118.55c8.82-43.19,48.43,15.15,13.09,27.46c3.41,10.71,7.3,18.72,15.5,29.51
				c5-0.82,10-1.64,13.19-3.21c10.6,19.82-26.38,113.75-80.93,59.21c1.83-1.54,3.12-2.41,4.96-3.94c-2.22-2.67-4.43-5.35-7.38-8.78
				c-62.78,12.08-89.07-75.24-79.77-124.07c4.81-12.75,16.94-21.34,29.5-26.62C766.13,49.45,805.46,65.93,818.05,118.55z"/>
			<path class="st1" d="M835.17,416.77c1.6,20.03,0.34,36.8-0.94,57.07c-17.27,0.87-37.24,2.12-52.89-9.6
				c-3.63,11.81-28.67,21.18-33.46,2.77c-8.33-2.16-14.3-11.09-13.11-19.61c-11.66-2.85-1.98-24.62,3-31.58
				c-103.46,51.79-32.63-31.1,25.76-24.6C787.62,400.86,809.47,409.32,835.17,416.77z"/>
		</g>
		<path class="st1" d="M738.84,188.07c13.25-6.27,26.95-11.59,40.96-15.9C784.53,197.66,753.1,211.29,738.84,188.07z"/>
		<path class="st0" d="M842.87,112.7c-4.21-15.13-26.79-10.36-24.54,5.17c-5.51-4.19-11.02-8.39-16.17-13.38
			c-10.63,8.96-26.88,10.54-39.38,3.53c-11.54,11.45-59.87,1.4-62.79-15.76c-5.59,9.85-7.94,21.51-6.68,32.54
			c-48.77-7.93-48.67-69.03-3.81-84.32c5.81-3.74,10.44-9.01,15.39-13.85c25.94-28.41,78.74-40.18,102.97-4.31
			C849.4,17.3,869.82,87.13,842.87,112.7z"/>
	</g>
	<g>
		<path class="st0" d="M722.83,961.19c-107.44,0-214.49,0-328.85,0c-16.52-118.5,0.09-246.63,53.49-353.8
			c67.67,22.53,147.88,25.18,215.28-2.34C734.09,709.76,728.32,839.96,722.83,961.19z"/>
		<path class="st1" d="M505.1,281.48c2.47,54.85,108.61,50.26,96.45,0.43c89.73-8.63,133.41,60.02,151.76,126.95
			c15.08,56.08,39.69,146.78,11.97,200.2c-20.51,32.76-57.55,24.32-87.46-7.71c-33.94,42.52-224.3,38.38-238.04-4.54
			c-22.83,33.95-81.98,45.07-102.14,3.55c-19.12-59.69,10.32-152.05,35.34-220.68C391.94,318.59,442.77,282.62,505.1,281.48z"/>
		<g>
			<path class="st0" d="M498.84,488.84c7.12-171.05-34.69-146.8,89.01-147.91c7.23,0,13.09,5.86,13.09,13.09
				c-7.12,171.05,34.69,146.8-89.01,147.91C504.7,501.93,498.84,496.07,498.84,488.84z"/>
			<g>
				<path class="st1" d="M514.52,357.76c-0.08-5.5,8.55-5.5,8.47,0C523.08,363.26,514.44,363.26,514.52,357.76z"/>
				<path class="st1" d="M514.52,370.26c-0.08-5.5,8.55-5.5,8.47,0C523.08,375.76,514.44,375.76,514.52,370.26z"/>
			</g>
		</g>
		<g>
			<path class="st1" d="M532.8,231.11c13.18-1.33,26.47-1.57,39.68-0.71C567.74,258.52,541.44,256.03,532.8,231.11z"/>
			<path class="st1" d="M614.4,212.47c-1.78,17.64-10.88,34.42-26.9,44.16c0.89,8.07,1.78,16.14,2.67,24.21
				c5.66-0.02,11.32-0.04,16.98-0.07c-12.01,55.07-92.77,54.07-103.45-1.24c6.02-0.32,12.04-0.64,18.06-0.97
				c-1.64-5.83-0.62-12.04-0.24-17.76c-13.9-12.49-26.7-29.91-28.52-47.38c-17.67-0.96-33.18-31.24-5.81-40.31
				c-7.29-111.05,136.08-112.29,134.91,1.95C645.65,172.7,636.8,210.2,614.4,212.47z"/>
			<path class="st1" d="M455.79,477.39c4.43-1.78,8.15-5.28,11.33-10.38c3.68-20.21,4.01-29.13,12.62-39.7
				c1.33-13.19,8.21-25.72,18.63-33.91c0.12,7.98,0.25,15.95,0.37,23.93c6-3.92,59.31-18.35,44.17-1.74
				c-16.65,9.15-32.25,12.09-46.67,24.83c10.55,0.1,56.31-13.45,56.61,1.32c0.05,2.94-4.22,8.66-6.89,7.42
				c11.25,7.63,0.6,15.55-8.57,16.69c3.96,0.8,5.2,6.39,3.16,9.88c-9.8,10.16-26.23,13.06-38.87,18.6
				c-4.64,11.1-12.4,22.99-23.57,28.08C466.24,515.86,459.38,490.14,455.79,477.39z"/>
			<path class="st1" d="M652.28,476.91c0.48,16.97-7.48,33.97-21.22,43.54c-11.9-3.63-21.54-13.9-24.9-25.08
				c-25.98-15.02-42.19-20.23-38.34-31.89c-12.27-3.23-10.66-11-6.43-16.7c-2.74-0.72-4.93-3.23-5.27-6.04
				c18.1-0.94,36.31,0.09,54.19,3.07c-21.09-23.83-55.35-18.94-49.83-32.3c6.82-7.85,31.76,2.97,41.17,5.13
				c-0.84-7.12-1.45-17.43-0.84-24.58C651.62,453.35,616.23,451.46,652.28,476.91z"/>
		</g>
		<path class="st0" d="M688.97,303.82c-29.1-19.22-63.8-22.99-98.81-22.99c0-8.42-1.47-16.87-2.01-23.06
			c12.38-12.7,19.63-26.1,25.67-44.37c21.36-2.69,25.3-20.91,20.91-33.36c-6.95-16.35-29.9,5.04-57.9-17.86
			c-26.35,8.12-55.87-11.41-58.69-38.84c-13,15.4-23.6,32.82-29.38,52.88c-21.09-4.48-19.68,37.28,6.03,37.28
			c3.41,19.85,11.5,33.65,25.88,46.68c2.55,5.03,0.86,10.14-0.63,18.48c-35.74,1.52-64.68,7.44-94.08,24.53
			c-9.49-38.03,14.73-57.48,23.9-85.24c12.2-37.18,2.5-74.29,27.41-113.4c23.44-37.8,79.89-55.4,120.54-34.86
			c23.42,12.69,37.13,37.84,44.82,63.34c7.69,25.5,10.05,51.45,23.42,74.48C686.13,235.88,710.01,269.26,688.97,303.82z"/>
	</g>
	<g>
		<path class="st0" d="M337.99,959.8c7.76-133.39,11.25-246.32-18.59-371.39c-68.48,23.78-150.24,10.86-209.23-31.27
			C17.19,668.03,16.08,823.23,24.79,961.19C133.45,961.19,234.86,959.8,337.99,959.8z"/>
		<path class="st1" d="M341.78,242.69c-2.02,5.56-4.32,9.21-6.21,14.76c-24.35,16.94-56.69,5.95-67.58-21.96
			c-107.52-28.74-145.38,2.34-202.72,90.18c-34.47,60.98-80.96,162.58-49.21,209c24.84,27.81,66.3,16.78,99.2,5.44
			c0.26,1.3-0.92,19.19,0,17.04c50.63,41.26,146.53,50.69,204.14,31.27c56.86-84.93,93.78-180.39,119.41-277.84
			C410.89,279.46,379.38,256.57,341.78,242.69z"/>
		<g>
			<path class="st1" d="M341.24,240.99c-1.17,5.63-3,11.13-4.37,15.24c-22.11,13.89-50.47,6.61-67.35-12.75
				c15.75-18.77,23.2-44.25,20.33-68.44c-36.19-7.25-16.95-54.64,3.88-33.81c9.21-29.5,29.53-61.68,62.91-64.8
				c39.92-3.26,66.19,37.9,61.03,74.86C412.52,190.21,379.11,246.5,341.24,240.99z"/>
			<path class="st1" d="M199.67,462.22c-6.29-15.82-11.01-32.27-14.09-49.01c21.87-12.7,41.14-29.86,54.91-51.93
				c25.93-4.13,65.6-6.85,84.17,14.91c2.98,3.68,0.09,7.31-4.32,6.46c-13.68-0.78-27.36-1.57-41.04-2.36
				c14.43,3.49,19.59,24.58,2.63,25.8c9.72,3.96,6.89,19.23-3.6,19.44c-0.48,17.01-26.69,25.76-33.62,8
				C217.37,464.98,217.56,438.2,199.67,462.22z"/>
		</g>
		<path class="st1" d="M334.86,195.34c12.6,5.77,22.92,11.8,35.52,17.57C355.02,231.73,325.44,221.07,334.86,195.34z"/>
		<path class="st0" d="M399.51,276.56c-13.97-18.31-46.67-13.39-57.84-34.79c27.25,5.43,46.43-20.17,57.74-42.28
			c18.42-31.13,31.12-75.31,2.28-103.27c-11.37,43.78-67.26,50.76-105.84,48.42c-17.39-28.71-47.14,19.89-6.49,30.96
			c-2.43,42.93-3.16,77.33-53.58,69.64c-16.1-18.13-48.12-19.89-70.75-15.38c-1.43-45.53,29.82-59.12,59.37-83.22
			c14.07-14.07,18.73-26.16,25.55-38.41c24.77-51.78,91.89-97.75,143.82-45.82c34.09,10.25,54.75,56.64,40.47,102.16
			c-4.39,11.24-10.53,21.97-12.51,33.87C419.67,228.3,427.27,255.03,399.51,276.56z"/>
	</g>
	<g>
		<g>
			<g>
				<path class="st2" d="M488.25,197.19c1.74,16.53,6.29,33.16,15.67,47.06c7.29,10.8,17.37,19.62,29.6,24.32
					c11,4.22,23.29,4.64,34.57,1.31c12.34-3.64,23.12-11.5,31.13-21.48c10.1-12.57,16.06-27.97,18.96-43.73
					c0.44-2.37,0.79-4.74,1.11-7.13c0.14-1.07-1.02-2-2-2c-1.2,0-1.86,0.92-2,2c-2.1,15.73-7.07,31.38-16.23,44.46
					c-3.7,5.29-8.18,10.13-13.26,14.18c-2.11,1.68-4.74,3.46-7.25,4.9c-2.52,1.44-5.09,2.67-7.58,3.62
					c-10.54,4-21.71,4.52-32.39,1.37c-5.46-1.61-10.39-4.02-15.2-7.35c-4.97-3.45-9.62-7.97-13.44-12.92
					c-9.33-12.07-14.49-27.13-16.86-42.16c-0.34-2.15-0.61-4.3-0.84-6.46c-0.11-1.07-0.84-2-2-2
					C489.26,195.19,488.14,196.11,488.25,197.19L488.25,197.19z"/>
			</g>
		</g>
		<g>
			<g>
				<path class="st2" d="M622.2,177.59c0.81-0.42,1-0.51,1.93-0.78c0.34-0.1,0.68-0.17,1.02-0.24c0.39-0.08,0.03-0.01,0.13-0.02
					c0.19-0.02,0.38-0.03,0.57-0.04c0.32-0.01,0.63,0.01,0.94,0.02c0.21,0.01,0.43,0.06,0.07,0c0.17,0.03,0.35,0.06,0.52,0.1
					c0.31,0.07,0.62,0.17,0.92,0.27c0.2,0.06,0.37,0.17,0.07,0.02c0.15,0.07,0.31,0.15,0.46,0.23c0.26,0.14,0.51,0.3,0.75,0.46
					c0.06,0.04,0.42,0.31,0.22,0.15c-0.19-0.15,0.19,0.17,0.26,0.23c0.22,0.21,0.44,0.42,0.65,0.65c0.11,0.12,0.2,0.23,0.31,0.35
					c0.21,0.25-0.14-0.21,0.12,0.16c0.4,0.56,0.76,1.14,1.06,1.76c0.08,0.15,0.15,0.31,0.22,0.46c0.16,0.35-0.07-0.2,0.07,0.16
					c0.14,0.36,0.27,0.72,0.39,1.09c0.24,0.74,0.42,1.49,0.56,2.26c0.03,0.19,0.07,0.38,0.09,0.57c0.06,0.38-0.01-0.14,0.03,0.24
					c0.05,0.43,0.08,0.86,0.11,1.29c0.09,1.79-0.03,3.54-0.31,5.05c-0.71,3.88-2.24,7.35-4.6,10.53c-3.13,4.22-7.64,7.36-12.48,9.31
					c-1,0.4-1.71,1.33-1.4,2.46c0.26,0.95,1.45,1.8,2.46,1.4c9.54-3.86,17.44-11.47,19.7-21.76c1.48-6.74,0.71-15.9-5.7-19.98
					c-3.47-2.22-7.66-1.66-11.17,0.15C617.9,175.31,619.92,178.77,622.2,177.59L622.2,177.59z"/>
			</g>
		</g>
		<g>
			<g>
				<path class="st2" d="M486.03,174.04c-3.51-0.39-6.97,0.54-9.67,2.85c-2.45,2.1-3.93,5.24-4.58,8.35
					c-1.62,7.77,0.87,16.06,5.77,22.18c3.19,3.98,7.55,6.83,12.38,8.42c2.45,0.81,3.5-3.06,1.06-3.86
					c-7.11-2.34-12.48-8.11-14.64-15.11c-0.97-3.15-1.34-6.14-0.92-9.47c0.29-2.32,1.34-5.17,2.86-6.83
					c0.24-0.26,0.49-0.51,0.76-0.75c0.13-0.12,0.27-0.23,0.41-0.34c-0.32,0.25,0.09-0.06,0.17-0.11c0.35-0.23,0.7-0.45,1.07-0.63
					c0.11-0.05,0.22-0.11,0.32-0.16c0.26-0.12-0.11,0.01,0.37-0.14c1.68-0.54,2.75-0.62,4.64-0.41c1.08,0.12,2-1,2-2
					C488.03,174.86,487.11,174.16,486.03,174.04L486.03,174.04z"/>
			</g>
		</g>
		<g>
			<g>
				<path class="st2" d="M550.39,197.2c-0.31,6.89-0.38,13.79-0.21,20.68c0.06,2.57,4.06,2.58,4,0c-0.17-6.89-0.1-13.79,0.21-20.68
					C554.51,194.63,550.51,194.63,550.39,197.2L550.39,197.2z"/>
			</g>
		</g>
		<g>
			<g>
				<path class="st2" d="M532.32,233.06c13.53-0.03,27.07-0.06,40.6-0.09c-0.67-0.67-1.33-1.33-2-2c-0.43,4.08-1.75,8.33-4.18,11.52
					c-2.05,2.7-4.82,4.57-7.89,5.48c-3.09,0.91-6.25,0.88-9.35,0.04c-3.36-0.91-6.43-2.74-8.94-5.24
					c-3.22-3.22-5.25-7.35-6.29-11.78c-0.59-2.51-4.44-1.44-3.86,1.06c2.07,8.83,8.11,16.53,16.85,19.46
					c7.56,2.53,16.27,0.68,21.62-5.39c3.73-4.23,5.45-9.63,6.03-15.16c0.11-1.08-1.01-2-2-2c-13.53,0.03-27.07,0.06-40.6,0.09
					C529.74,229.07,529.74,233.07,532.32,233.06L532.32,233.06z"/>
			</g>
		</g>
		<g>
			<g>
				<path class="st2" d="M518.46,179.3c-0.18,0.24,0.08-0.09,0.11-0.13c0.11-0.12,0.22-0.24,0.33-0.36
					c0.22-0.23,0.46-0.45,0.72-0.65c-0.28,0.22,0.21-0.14,0.22-0.14c0.11-0.07,0.22-0.14,0.33-0.21c0.28-0.17,0.57-0.31,0.86-0.46
					c0.53-0.27-0.32,0.1,0.24-0.1c0.12-0.04,0.25-0.09,0.37-0.13c0.31-0.11,0.63-0.2,0.96-0.28c0.33-0.08,0.66-0.14,0.99-0.2
					c0.62-0.11-0.36,0.01,0.27-0.03c0.17-0.01,0.34-0.03,0.51-0.04c0.68-0.04,1.37-0.03,2.05,0.02c0.17,0.01,0.34,0.03,0.51,0.05
					c0.35,0.04-0.03-0.01,0.18,0.03c0.34,0.06,0.67,0.12,1,0.19c0.65,0.15,1.29,0.34,1.91,0.58c0.11,0.04,0.41,0.17,0.15,0.06
					c0.15,0.06,0.29,0.13,0.44,0.2c0.31,0.15,0.61,0.32,0.91,0.5c2.22,1.31,4.23-2.14,2.02-3.45c-5.74-3.4-14.35-3.12-18.53,2.55
					c-0.64,0.87-0.14,2.23,0.72,2.74C516.74,180.61,517.81,180.17,518.46,179.3L518.46,179.3z"/>
			</g>
		</g>
		<g>
			<g>
				<path class="st2" d="M571.05,177.93c4.7-3.15,12.61-3.25,16.73,0.89c1.82,1.83,4.65-1,2.83-2.83
					c-5.36-5.39-15.41-5.65-21.57-1.52c-0.9,0.6-1.29,1.76-0.72,2.74C568.83,178.11,570.14,178.54,571.05,177.93L571.05,177.93z"/>
			</g>
		</g>
		<path class="st2" d="M527.18,203.13c-0.07-4.87,7.57-4.87,7.5,0C534.75,208,527.11,208,527.18,203.13z"/>
		<path class="st2" d="M572,202.38c-0.07-4.87,7.57-4.87,7.5,0C579.57,207.25,571.93,207.25,572,202.38z"/>
		<g>
			<g>
				<path class="st2" d="M514.54,110.63c0.83,10.72,4.31,21.27,9.68,30.56c5.43,9.41,13.19,18.02,23.12,22.75
					c5.63,2.68,11.76,4.04,18,3.87c2.57-0.07,2.58-4.07,0-4c-21.5,0.6-36.9-18.38-43.34-37.07c-1.79-5.2-3.04-10.62-3.47-16.11
					C518.35,108.08,514.35,108.05,514.54,110.63L514.54,110.63z"/>
			</g>
		</g>
		<g>
			<g>
				<path class="st2" d="M549.3,125.88c4.3,10.31,9.8,20.14,17.19,28.57c8.09,9.24,18.53,16.38,30.45,19.6
					c7.93,2.14,16.24,2.54,24.39,1.65c1.07-0.12,2-0.84,2-2c0-0.99-0.92-2.12-2-2c-13.09,1.43-26.23-0.71-37.54-7.66
					c-9.54-5.86-17.07-14.47-22.87-23.96c-2.98-4.87-5.58-10.05-7.76-15.27c-0.42-1-1.32-1.71-2.46-1.4
					C549.76,123.68,548.89,124.88,549.3,125.88L549.3,125.88z"/>
			</g>
		</g>
		<g>
			<g>
				<path class="st2" d="M519.52,260.81c-0.25,7.53-0.74,15.06-1.47,22.56c-0.1,1.08,0.99,2,2,2c1.17,0,1.9-0.92,2-2
					c0.73-7.5,1.22-15.03,1.47-22.56C523.6,258.24,519.6,258.24,519.52,260.81L519.52,260.81z"/>
			</g>
		</g>
		<g>
			<g>
				<path class="st2" d="M586.16,257.77c0.4,7.95,1.5,15.86,3.29,23.62c0.58,2.51,4.44,1.45,3.86-1.06
					c-1.71-7.42-2.76-14.95-3.14-22.56C590.03,255.21,586.03,255.2,586.16,257.77L586.16,257.77z"/>
			</g>
		</g>
		<g>
			<g>
				<path class="st2" d="M504.22,288.44c2.4,8.46,7.06,16.19,13.68,22.01c6.33,5.57,14.08,9.36,22.26,11.32
					c16.42,3.94,34.9,1.03,48.82-8.71c8.13-5.69,14.35-13.53,17.9-22.81c0.39-1.01-0.43-2.19-1.4-2.46
					c-1.13-0.31-2.07,0.38-2.46,1.4c-5.85,15.31-19.93,25.4-35.57,28.88c-15.1,3.37-32.16,0.86-44.65-8.73
					c-7.14-5.48-12.25-13.24-14.72-21.95C507.37,284.9,503.51,285.96,504.22,288.44L504.22,288.44z"/>
			</g>
		</g>
		<g>
			<g>
				<path class="st2" d="M507.89,277.35c-23.9,1.28-47.91,6.09-69.48,16.74c-10.7,5.28-20.69,12.06-29.35,20.28
					c-5.9,5.6-10.92,12.24-15.47,18.95c-10.95,16.18-19.25,34.11-26.39,52.25c-8.18,20.77-14.74,42.17-20.25,63.8
					c-5.53,21.7-9.98,43.68-13.32,65.82c-3.25,21.56-6.42,43.69-2.76,65.39c2.61,15.53,9.15,31.12,22.01,40.88
					c10.8,8.2,24.66,10.42,37.81,8.02c18.78-3.43,34.58-15.28,47.92-28.36c17.1-16.77,31.4-36.34,44.66-56.2
					c3.04-4.55,6.02-9.15,8.96-13.77c1.39-2.18-2.07-4.19-3.45-2.02c-12.48,19.62-25.7,38.92-41.03,56.44
					c-13.32,15.22-28.77,30.38-48.17,37.35c-6.43,2.31-12.87,3.6-19.62,3.52c-6.07-0.07-12.3-1.37-17.71-3.95
					c-12.77-6.1-20.81-18.33-24.9-31.72c-6.15-20.13-4.26-41.41-1.62-61.95c2.75-21.41,6.67-42.69,11.52-63.73
					c4.99-21.65,11-43.09,18.42-64.03c6.63-18.72,14.35-37.19,24.31-54.41c4.21-7.29,8.83-14.39,14.15-20.92
					c6.16-7.57,13.38-14.07,21.45-19.57c19.33-13.15,42.24-20.24,65.28-23.28c5.65-0.74,11.34-1.25,17.03-1.55
					C510.45,281.21,510.46,277.21,507.89,277.35L507.89,277.35z"/>
			</g>
		</g>
		<g>
			<g>
				<path class="st2" d="M486.79,515.37c0.39,4.34,0.78,8.68,1.17,13.01c0.09,1.04,0.85,2.05,2,2c1-0.05,2.1-0.88,2-2
					c-0.39-4.34-0.78-8.68-1.17-13.01c-0.09-1.04-0.85-2.05-2-2C487.79,513.42,486.69,514.25,486.79,515.37L486.79,515.37z"/>
			</g>
		</g>
		<g>
			<g>
				<path class="st2" d="M368.21,527.8c21.73-17.29,44.97-32.51,68.15-47.75c6.72-4.42,13.44-8.85,20.11-13.33
					c-0.98-0.4-1.96-0.8-2.94-1.2c2.69,19.85,5.72,42.57,21.13,57.02c4.44,4.17,9.66,7.28,15.31,9.53c1,0.4,2.2-0.44,2.46-1.4
					c0.31-1.14-0.39-2.06-1.4-2.46c-9.23-3.66-16.69-10.27-21.67-18.82c-4.92-8.46-7.47-18.08-9.28-27.62
					c-1.09-5.74-1.91-11.53-2.69-17.31c-0.17-1.25-1.97-1.85-2.94-1.2c-23.3,15.66-47.13,30.57-69.84,47.09
					c-6.51,4.74-12.93,9.6-19.23,14.62c-0.85,0.67-0.7,2.13,0,2.83C366.22,528.64,367.37,528.47,368.21,527.8L368.21,527.8z"/>
			</g>
		</g>
		<g>
			<g>
				<path class="st2" d="M431.83,407.84c-1.49,16.81-1.76,33.73-0.79,50.58c0.28,4.85,0.67,9.69,1.15,14.53c0.11,1.07,0.84,2,2,2
					c1,0,2.11-0.92,2-2c-1.68-16.8-2.14-33.71-1.35-50.57c0.23-4.85,0.56-9.7,0.99-14.54c0.1-1.08-0.99-2-2-2
					C432.67,405.84,431.93,406.76,431.83,407.84L431.83,407.84z"/>
			</g>
		</g>
		<g>
			<g>
				<path class="st2" d="M477.43,523.81c5.79-2.36,10.69-6.56,14.89-11.12c4.18-4.54,7.97-9.66,10.63-15.26
					c1.1-2.31-2.35-4.35-3.45-2.02c-2.46,5.18-5.89,9.93-9.74,14.16c-3.74,4.11-8.17,8.25-13.39,10.38c-1,0.41-1.71,1.33-1.4,2.46
					C475.23,523.36,476.42,524.22,477.43,523.81L477.43,523.81z"/>
			</g>
		</g>
		<g>
			<g>
				<path class="st2" d="M504.02,495.79c1.03-0.76,2.19-1.33,3.35-1.87c1.38-0.63,2.62-1.11,4.27-1.73
					c3.72-1.39,7.48-2.67,11.19-4.07c3.89-1.46,7.79-3.02,11.43-5.03c2.91-1.61,5.84-3.58,7.72-6.39c2.07-3.09,1.84-6.77-0.07-9.87
					c-1.35-2.19-4.81-0.18-3.45,2.02c0.21,0.33,0.39,0.67,0.57,1.02c0.27,0.54-0.12-0.35,0.09,0.19c0.05,0.14,0.1,0.27,0.14,0.41
					c0.09,0.29,0.16,0.59,0.22,0.89c0.11,0.52-0.01-0.42,0.01,0.1c0.01,0.18,0.02,0.36,0.02,0.54c0,0.13-0.01,0.25-0.02,0.38
					c-0.02,0.51,0.1-0.43-0.01,0.07c-0.06,0.3-0.15,0.59-0.23,0.88c-0.03,0.1-0.07,0.2-0.1,0.29c0.17-0.47,0,0.01-0.05,0.09
					c-0.17,0.31-0.33,0.61-0.52,0.9c-0.34,0.51-0.43,0.63-1.05,1.26c-0.22,0.22-0.44,0.43-0.67,0.64c-0.14,0.13-0.29,0.25-0.43,0.38
					c-0.05,0.04-0.61,0.5-0.36,0.3c-1.31,1.02-2.76,1.88-4.22,2.66c-6.65,3.59-13.98,5.75-21.05,8.4c-2.96,1.11-6.2,2.19-8.78,4.08
					c-0.87,0.64-1.3,1.73-0.72,2.74C501.78,495.93,503.14,496.43,504.02,495.79L504.02,495.79z"/>
			</g>
		</g>
		<g>
			<g>
				<path class="st2" d="M503,477.39c3.32-0.04,6.71-0.82,9.95-1.49c5.05-1.04,10.05-2.32,14.98-3.82
					c5.14-1.57,10.26-3.37,15.08-5.77c3.39-1.69,7.35-3.88,9.28-7.3c2.39-4.25-0.4-8.06-3.95-10.44c-2.15-1.43-4.15,2.03-2.02,3.45
					c0.21,0.14,0.43,0.29,0.64,0.44c0.26,0.18-0.08-0.09,0.3,0.24c0.33,0.28,0.65,0.57,0.94,0.88c0.13,0.14,0.26,0.29,0.39,0.44
					c0.19,0.22-0.16-0.3,0.09,0.14c0.12,0.2,0.53,1.08,0.32,0.5c0.1,0.29,0.17,0.57,0.25,0.87c-0.14-0.6-0.03,0.2-0.03,0.49
					c0,0.02,0.13-0.43,0-0.05c-0.05,0.14-0.08,0.29-0.11,0.43c-0.06,0.25-0.18,0.43,0,0.05c-0.08,0.16-0.15,0.32-0.24,0.48
					c-0.15,0.27-0.33,0.53-0.51,0.79c-0.14,0.2,0.23-0.24-0.1,0.12c-0.14,0.15-0.28,0.31-0.42,0.47c-0.26,0.27-0.53,0.52-0.8,0.77
					c-0.16,0.14-0.32,0.27-0.48,0.41c-0.08,0.07-0.17,0.14-0.25,0.2c0.33-0.26,0.02-0.01-0.05,0.04c-1.65,1.21-3.43,2.23-5.26,3.14
					c-8.54,4.25-18.43,6.9-27.93,8.93c-2.12,0.45-4.24,0.87-6.38,1.21c-0.42,0.07-0.85,0.13-1.27,0.19
					c-0.28,0.04,0.41-0.05,0.14-0.02c-0.1,0.01-0.21,0.03-0.31,0.04c-0.18,0.02-0.35,0.04-0.53,0.06c-0.57,0.06-1.14,0.11-1.71,0.12
					C500.43,473.42,500.42,477.42,503,477.39L503,477.39z"/>
			</g>
		</g>
		<g>
			<g>
				<path class="st2" d="M501.08,460.37c7.16-1.82,14.43-3.2,21.68-4.6c6.29-1.22,12.63-2.37,18.78-4.2
					c3.95-1.18,8.47-2.63,10.96-6.14c1.41-1.98,2.25-4.65,0.93-6.9c-1.26-2.14-3.83-3.15-6.13-3.72c-3.23-0.8-6.62-1.01-9.93-1.07
					c-8.29-0.15-16.62,0.74-24.82,1.96c-3.59,0.53-7.16,1.15-10.7,1.93c-2.25,0.49-4.54,1-6.68,1.87c-0.42,0.17-0.85,0.34-1.25,0.58
					c0.91,0.91,1.82,1.82,2.74,2.74c6.63-11.03,19.9-14.06,31.24-17.95c5.98-2.05,11.73-4.46,16.88-8.17
					c2.54-1.82,4.53-4.95,2.82-8.05c-1.84-3.34-5.93-3.31-9.25-3.25c-18.08,0.34-35.28,7.61-51.1,15.78
					c-2.89,1.49-5.78,2.79-8.33,4.85c-2.06,1.67-3.81,3.73-5.18,6c-2.65,4.38-3.87,9.45-4.7,14.45c-0.81,4.91-1.24,9.91-2.49,14.74
					c-1.08,4.16-2.88,8.19-6.39,10.66c-1,0.71-2.09,1.28-3.21,1.77c-0.99,0.43-1.22,1.88-0.72,2.74c0.6,1.02,1.74,1.15,2.74,0.72
					c4.31-1.87,7.66-5.28,9.59-9.55c1.96-4.33,2.73-9.01,3.4-13.68c1.33-9.21,2.38-19.96,10.73-25.71c2.77-1.91,5.99-3.25,8.99-4.76
					c3.89-1.96,7.82-3.83,11.83-5.53c7.94-3.38,16.23-6.11,24.76-7.54c4.22-0.7,8.52-1.05,12.79-0.93c1.05,0.03,2.41,0.22,2.96,1.06
					c0.36,0.54,0.25,1.19-0.31,1.92c-0.87,1.11-2.37,1.91-3.54,2.65c-1.24,0.78-2.52,1.5-3.83,2.15c-2.68,1.33-5.46,2.41-8.28,3.4
					c-11.21,3.94-24.16,6.73-32.1,16.33c-1.01,1.22-1.94,2.52-2.76,3.88c-1.03,1.72,1.02,3.75,2.74,2.74
					c0.11-0.06,0.21-0.12,0.33-0.18c0.06-0.03,0.13-0.06,0.19-0.09c0.37-0.22-0.36,0.13-0.11,0.05c0.38-0.14,0.75-0.28,1.14-0.41
					c1.06-0.35,2.14-0.63,3.22-0.9c3.09-0.76,6.22-1.36,9.35-1.88c7.57-1.27,15.26-2.15,23.11-2.36c3.42-0.09,6.86-0.05,10.26,0.37
					c0.4,0.05-0.24-0.04,0.15,0.02c0.19,0.03,0.39,0.06,0.58,0.09c0.35,0.06,0.69,0.12,1.03,0.19c0.61,0.12,1.21,0.26,1.81,0.44
					c0.28,0.08,0.56,0.17,0.84,0.27c0.12,0.04,0.24,0.09,0.36,0.14c0.32,0.12-0.36-0.18,0.03,0.02c0.44,0.22,0.85,0.46,1.26,0.72
					c0.32,0.2-0.16-0.14-0.08-0.07c0.07,0.07,0.15,0.12,0.22,0.19c0.19,0.21,0.44,0.6,0.15,0.11c0.1,0.16,0.19,0.34,0.3,0.49
					c-0.39-0.56-0.05,0.09,0.02,0.13c0.14,0.08,0,0.23-0.01-0.19c0,0.09,0.03,0.18,0.02,0.27c-0.01,0.08-0.01,0.19,0,0.28
					c0.05,0.42,0.07-0.26,0.01-0.05c-0.06,0.2-0.1,0.41-0.16,0.61c-0.03,0.11-0.08,0.21-0.11,0.32c0.12-0.35,0.11-0.22-0.02,0.01
					c-0.29,0.53-0.59,1.05-0.96,1.54c-0.06,0.08,0.19-0.2-0.08,0.08c-0.12,0.11-0.23,0.24-0.34,0.35c-0.13,0.12-0.26,0.23-0.39,0.34
					c-0.17,0.14,0.02-0.01,0.05-0.04c-0.1,0.08-0.2,0.15-0.3,0.22c-1.67,1.11-3.39,1.81-5.26,2.45c-5.5,1.87-11.26,2.97-16.94,4.09
					c-6.82,1.35-13.67,2.59-20.45,4.13c-1.72,0.39-3.43,0.8-5.13,1.23C497.52,457.14,498.58,461,501.08,460.37L501.08,460.37z"/>
			</g>
		</g>
		<g>
			<g>
				<path class="st2" d="M482.4,426.95c2.97-11.91,9.15-22.83,17.85-31.49c1.83-1.82-1-4.65-2.83-2.83
					c-9.17,9.12-15.75,20.7-18.88,33.25C477.92,428.38,481.78,429.45,482.4,426.95L482.4,426.95z"/>
			</g>
		</g>
		<g>
			<g>
				<path class="st2" d="M601.65,281.17c13.8,0.91,27.61,2.37,41.15,5.27c10.89,2.33,21.64,5.62,31.61,10.57
					c9.12,4.53,17.35,10.32,24.64,17.36c7.87,7.6,14.47,16.38,20.26,25.65c7.09,11.35,13.03,23.39,18.52,35.58
					c0.76,1.69,1.52,3.39,2.26,5.1c0.43,0.99,1.88,1.22,2.74,0.72c1.02-0.6,1.15-1.74,0.72-2.74
					c-5.57-12.72-11.56-25.31-18.68-37.24c-5.84-9.79-12.51-19.18-20.46-27.38c-7.23-7.46-15.56-13.86-24.7-18.81
					c-9.87-5.35-20.57-9.06-31.46-11.68c-13.35-3.21-27.06-4.9-40.73-5.98c-1.95-0.15-3.9-0.29-5.85-0.42
					C599.08,277,599.09,281,601.65,281.17L601.65,281.17z"/>
			</g>
		</g>
		<g>
			<g>
				<path class="st2" d="M768.35,484.36c3.8,17.47,7.19,35.1,8.52,52.95c1.32,17.72,0.77,36.02-4.89,53.01
					c-3.7,11.12-9.76,22.22-18.67,29.89c-1.56,1.34-2.98,2.39-4.92,3.56c-0.88,0.53-1.78,1.03-2.7,1.48
					c-0.43,0.21-0.86,0.41-1.29,0.6c-0.11,0.05-0.22,0.09-0.32,0.14c0.34-0.15,0.06-0.03-0.01,0c-0.27,0.11-0.54,0.22-0.81,0.32
					c-1.83,0.7-3.72,1.23-5.64,1.6c-0.45,0.09-0.9,0.16-1.35,0.23c-0.11,0.02-0.23,0.03-0.34,0.05c0.07-0.01,0.41-0.05,0.02,0
					c-0.26,0.03-0.51,0.06-0.77,0.09c-0.97,0.1-1.94,0.16-2.91,0.18c-1.95,0.04-3.9-0.07-5.83-0.3c-0.55-0.06-0.02,0-0.35-0.05
					c-0.24-0.03-0.47-0.07-0.71-0.11c-0.53-0.08-1.06-0.18-1.59-0.28c-1.01-0.2-2.02-0.43-3.02-0.69c-4.26-1.1-8.02-2.58-11.75-4.38
					c-8.7-4.2-16.74-9.87-24.05-15.89c-8.11-6.67-15.66-14.01-22.85-21.67c-6.86-7.31-13.39-14.94-19.67-22.76
					c-2.87-3.57-5.33-6.73-7.98-10.24c-2.28-3.02-4.54-6.06-6.75-9.13c-2.86-3.95-5.65-7.95-8.41-11.97
					c-0.29-0.43-0.59-0.86-0.89-1.29c-1.46-2.09-4.93-0.1-3.45,2.02c2.26,3.24,4.48,6.51,6.76,9.73
					c4.53,6.38,9.21,12.66,14.03,18.83c6.11,7.83,12.47,15.47,19.13,22.85c7.15,7.92,14.66,15.54,22.69,22.58
					c7.65,6.7,15.81,12.97,24.71,17.94c7.78,4.34,16.26,7.74,25.19,8.62c8.23,0.81,16.55-1.01,23.55-5.43
					c8.89-5.62,15.24-14.52,19.94-23.77c8.16-16.08,10.61-34.43,10.47-52.28c-0.15-18.51-3.01-36.92-6.63-55.03
					c-0.83-4.16-1.71-8.32-2.61-12.47C771.66,480.78,767.8,481.84,768.35,484.36L768.35,484.36z"/>
			</g>
		</g>
		<g>
			<g>
				<path class="st2" d="M618.7,530.73c0.01-6.42,0.63-12.82,0.64-19.24c0-2.57-4-2.58-4,0c-0.01,6.42-0.63,12.82-0.64,19.24
					C614.69,533.3,618.69,533.31,618.7,530.73L618.7,530.73z"/>
			</g>
		</g>
		<g>
			<g>
				<path class="st2" d="M617.87,532.66c10.26-3.66,18.5-10.77,24.33-19.91c5.78-9.07,9.17-19.56,11.36-30.03
					c1.22-5.85,2.07-11.79,2.71-17.73c-1,0.58-2.01,1.15-3.01,1.73c21.78,15.52,43.57,31.03,65.35,46.55
					c6.22,4.43,12.45,8.87,18.67,13.3c0.88,0.63,2.23,0.16,2.74-0.72c0.59-1,0.16-2.11-0.72-2.74
					c-21.78-15.52-43.57-31.03-65.35-46.55c-6.22-4.43-12.45-8.87-18.67-13.3c-1.37-0.97-2.87,0.38-3.01,1.73
					c-1.08,10.07-2.84,20.15-6.07,29.77c-3.14,9.37-7.85,18.47-15.12,25.31c-4.1,3.86-8.96,6.83-14.27,8.72
					C614.4,529.66,615.44,533.53,617.87,532.66L617.87,532.66z"/>
			</g>
		</g>
		<g>
			<g>
				<path class="st2" d="M671.14,416.13c5.98,18.05,8.38,37.12,7.07,56.09c-0.18,2.57,3.82,2.56,4,0
					c1.33-19.29-1.13-38.8-7.21-57.16C674.19,412.63,670.32,413.67,671.14,416.13L671.14,416.13z"/>
			</g>
		</g>
		<g>
			<g>
				<path class="st2" d="M631.11,517.97c-10.39-4.08-18.82-12.85-22.54-23.36c-0.85-2.41-4.72-1.37-3.86,1.06
					c4.23,11.95,13.55,21.53,25.33,26.16c1.01,0.39,2.2-0.43,2.46-1.4C632.82,519.29,632.12,518.36,631.11,517.97L631.11,517.97z"/>
			</g>
		</g>
		<g>
			<g>
				<path class="st2" d="M606.96,493.04c-2.3-2.22-5.12-3.86-7.94-5.33c-3.38-1.76-6.87-3.29-10.34-4.86
					c-3.5-1.58-7-3.17-10.35-5.04c-2.83-1.59-5.38-3.18-7.46-5.6c-0.05-0.06-0.32-0.39-0.11-0.12c-0.11-0.15-0.22-0.3-0.33-0.45
					c-0.2-0.3-0.39-0.61-0.57-0.93c-0.08-0.16-0.16-0.31-0.24-0.47c-0.18-0.39,0.09,0.28-0.06-0.16c-0.11-0.33-0.2-0.65-0.28-0.98
					c0,0-0.09-0.55-0.05-0.24c0.04,0.27-0.02-0.36-0.02-0.42c-0.01-0.35,0-0.7,0.04-1.05c-0.05,0.41,0.14-0.57,0.18-0.73
					c0.11-0.38,0.25-0.75,0.4-1.12c0.42-1-0.45-2.2-1.4-2.46c-1.15-0.32-2.04,0.4-2.46,1.4c-2.75,6.58,2.52,11.89,7.64,15.19
					c6.65,4.29,14.21,6.99,21.29,10.46c3.29,1.61,6.75,3.38,9.21,5.75C605.98,497.65,608.82,494.83,606.96,493.04L606.96,493.04z"/>
			</g>
		</g>
		<g>
			<g>
				<path class="st2" d="M605.47,473.46c-7.56-1.76-15.08-3.79-22.45-6.25c-4.38-1.47-8.72-3.08-12.88-5.1
					c-1.84-0.89-3.64-1.86-5.35-2.98c-1.41-0.92-2.36-1.6-3.58-2.93c-0.15-0.16-0.29-0.32-0.43-0.49c-0.2-0.23,0.13,0.23-0.16-0.21
					c-0.2-0.3-0.4-0.61-0.57-0.93c-0.08-0.14-0.15-0.29-0.21-0.44c0.18,0.4,0.02,0.06-0.03-0.15c-0.04-0.15-0.08-0.3-0.12-0.44
					c-0.02-0.06-0.02-0.13-0.04-0.19c-0.1-0.42,0.02,0.33,0.01,0.09c-0.01-0.32-0.02-0.64,0.01-0.96c-0.06,0.58,0.12-0.33,0.19-0.56
					c0.13-0.43-0.11,0.19,0.05-0.11c0.1-0.17,0.18-0.35,0.29-0.52c0.11-0.18,0.23-0.35,0.35-0.52c-0.25,0.34,0.14-0.16,0.22-0.25
					c1.68-1.93-1.13-4.77-2.83-2.83c-2.3,2.64-3.01,5.95-1.24,9.09c1.81,3.22,5.27,5.44,8.4,7.21c8.54,4.8,18.21,7.73,27.61,10.35
					c3.87,1.08,7.77,2.07,11.69,2.98C606.92,477.9,607.98,474.04,605.47,473.46L605.47,473.46z"/>
			</g>
		</g>
		<g>
			<g>
				<path class="st2" d="M604.2,455.97c-7.88-1.93-15.75-3.86-23.63-5.79c-3.86-0.95-7.72-1.89-11.57-2.84
					c-1.91-0.47-3.92-0.81-5.79-1.42c-0.72-0.23-1.4-0.65-2.06-1.04c-0.55-0.32-1.09-0.66-1.62-1.02c-0.13-0.09-0.83-0.63-0.34-0.24
					c-0.21-0.17-0.41-0.34-0.61-0.52c-0.12-0.11-0.23-0.24-0.35-0.35c-0.06-0.06-0.12-0.14-0.18-0.2c-0.24-0.24,0.25,0.43,0.11,0.14
					c-0.06-0.11-0.15-0.28-0.23-0.38c0.03,0.04,0.15,0.49,0.04,0.01c0.16,0.67,0.05,0.41,0.05,0.15c-0.01,0.62-0.06,0.48,0,0.23
					c-0.12,0.51-0.22,0.47-0.11,0.28c0.09-0.15,0.26-0.28-0.18,0.22c0.1-0.11,0.21-0.2,0.31-0.3c-0.48,0.5-0.23,0.14,0,0.03
					c0.14-0.07,0.29-0.14,0.43-0.22c0.11-0.06-0.46,0.14,0.02,0c0.22-0.07,0.44-0.15,0.66-0.21c0.44-0.13,0.88-0.23,1.32-0.31
					c0.25-0.05,0.5-0.09,0.75-0.13c0.15-0.02,1.02-0.14,0.41-0.06c1.29-0.16,2.59-0.26,3.89-0.33c3.06-0.15,6.13-0.12,9.2-0.02
					c6.86,0.22,13.71,0.78,20.53,1.55c0.89,0.1,1.77,0.21,2.66,0.32c0.36,0.05,0.72,0.09,1.09,0.14c0.18,0.02,0.35,0.05,0.53,0.07
					c0.34,0.04-0.22-0.03,0.33,0.04c1.38,0.19,2.77,0.39,4.14,0.62c1.04,0.17,2.07,0.36,3.1,0.59c0.37,0.08,0.75,0.17,1.11,0.28
					c0.31,0.09,1.04,0.41,0.29,0.07c1.74,0.79,3.8-0.88,2.74-2.74c-4.71-8.2-13.62-12.78-22.06-16.21
					c-4.3-1.75-8.71-3.21-13.11-4.71c-3.65-1.24-7.19-2.4-10.42-4.06c-0.74-0.38-1.46-0.79-2.15-1.25c-0.15-0.1-0.3-0.21-0.45-0.31
					c-0.28-0.2,0.22,0.2-0.12-0.1c-0.25-0.21-0.49-0.42-0.72-0.66c-0.12-0.13-0.23-0.26-0.35-0.39c-0.3-0.33,0.13,0.22-0.03-0.04
					c-0.14-0.24-0.28-0.47-0.41-0.72c0.27,0.52-0.03-0.21-0.1-0.44c-0.11-0.37,0.17,0.2,0.01,0.02c-0.05-0.06,0-0.39,0-0.47
					c-0.09,0.34-0.18,0.67-0.27,1.01c0.75-1.45,1.85-2.42,3.21-2.95c1.93-0.75,3.8-0.86,5.87-0.8c4.87,0.14,9.68,1.43,14.33,2.8
					c4.16,1.23,8.24,2.7,12.4,3.9c6.15,1.77,12.28,4.15,17.89,7.23c3.71,2.03,7.24,4.45,10.06,7.63c1.91,2.15,3.6,5.13,4.48,7.7
					c1.96,5.67,2.15,11.77,3.8,17.52c2.28,7.92,7.23,14.41,13.66,19.48c1.12,0.89,2.27,1.74,3.44,2.55
					c2.12,1.48,4.12-1.99,2.02-3.45c-5.5-3.84-10.38-8.5-13.33-14.53c-0.98-2.01-1.78-4.37-2.38-6.83c-0.56-2.28-0.94-4.6-1.33-6.92
					c-0.78-4.67-1.73-9.32-4.06-13.51c-3.09-5.56-8.21-9.64-13.67-12.73c-7.66-4.33-16.04-6.8-24.35-9.51
					c-7.26-2.37-14.74-4.96-22.44-5.32c-3.21-0.15-6.71,0.16-9.51,1.88c-1.38,0.84-2.57,2.02-3.36,3.43
					c-0.63,1.11-0.58,2.33-0.18,3.51c1.55,4.5,7.37,6.5,11.36,8.03c6.33,2.42,12.84,4.3,19.12,6.85c6.2,2.52,12.54,5.7,17.07,10.76
					c1,1.12,1.84,2.3,2.6,3.62c0.91-0.91,1.82-1.82,2.74-2.74c-1.46-0.67-3.1-0.92-4.67-1.2c-2.82-0.5-5.66-0.87-8.5-1.22
					c-7.09-0.87-14.23-1.48-21.37-1.76c-5.72-0.22-11.98-0.59-17.57,0.87c-1.72,0.45-3.78,1.32-4.27,3.22
					c-0.59,2.26,1.33,4.02,2.95,5.22c1.14,0.85,2.39,1.56,3.65,2.22c1.66,0.87,3.71,1.12,5.52,1.57c2.01,0.49,4.02,0.99,6.03,1.48
					c8.2,2.01,16.39,4.02,24.59,6.03c2.09,0.51,4.18,1.02,6.27,1.54C605.64,460.44,606.71,456.58,604.2,455.97L604.2,455.97z"/>
			</g>
		</g>
		<g>
			<g>
				<path class="st2" d="M599.53,393.92c4.6,5.2,8.49,11.02,12.16,16.91c3.7,5.94,7.14,12.05,10.28,18.3
					c1.16,2.3,4.61,0.28,3.45-2.02c-3.21-6.37-6.72-12.6-10.5-18.65c-3.78-6.05-7.83-12.02-12.56-17.37
					C600.65,389.16,597.83,392,599.53,393.92L599.53,393.92z"/>
			</g>
		</g>
		<path class="st3" d="M498.84,416.67v-63.69c0-6.65,5.39-12.05,12.05-12.05h78c6.65,0,12.05,5.39,12.05,12.05v63.5"/>
		<path class="st3" d="M600.94,489.88c0,6.65-5.39,12.05-12.05,12.05h-78c-3.33,0-6.34-1.35-8.52-3.53"/>
		<path class="st3" d="M512.93,357.76c-0.11-7.13,11.78-7.13,11.66,0C524.7,364.9,512.82,364.9,512.93,357.76z"/>
		<path class="st3" d="M512.93,370.26c-0.11-7.13,11.78-7.13,11.66,0C524.7,377.4,512.82,377.4,512.93,370.26z"/>
		<g>
			<g>
				<path class="st2" d="M442.96,602.59c1.05,3.73,3.14,6.91,6.22,9.27c3.01,2.31,6.62,3.69,10.19,4.86
					c4.12,1.34,8.33,2.41,12.45,3.78c3.32,1.11,6.58,2.18,9.97,3.04c14.01,3.56,28.41,5.59,42.78,6.92
					c16.53,1.52,33.17,1.98,49.76,1.41c16.58-0.57,33.18-2.15,49.47-5.33c14.16-2.76,28.33-6.72,41.21-13.34
					c1.42-0.73,2.81-1.49,4.19-2.29c2.22-1.29,0.21-4.75-2.02-3.45c-11.9,6.92-25.29,11.05-38.67,14.02
					c-15.58,3.46-31.51,5.27-47.44,6.1c-16.47,0.86-33.01,0.66-49.47-0.54c-14.39-1.05-28.78-2.84-42.89-5.96
					c-3-0.66-6-1.39-8.96-2.21c-3.8-1.04-7.48-2.47-11.26-3.6c-3.89-1.16-7.84-2.17-11.61-3.68c-2.94-1.18-5.9-2.84-7.84-5.41
					c-1.06-1.39-1.75-2.98-2.22-4.65C446.12,599.05,442.26,600.11,442.96,602.59L442.96,602.59z"/>
			</g>
		</g>
		<g>
			<g>
				<path class="st2" d="M441.14,618.38c-9.58,20.11-17.98,40.78-25.15,61.88c-7.16,21.07-13.09,42.56-17.76,64.32
					c-4.67,21.71-8.08,43.7-10.25,65.8c-2.17,22.07-3.07,44.27-2.68,66.45c0.39,22.28,2.1,44.53,5.08,66.62
					c0.37,2.73,0.76,5.46,1.17,8.18c0.16,1.07,1.51,1.66,2.46,1.4c1.14-0.31,1.56-1.39,1.4-2.46c-3.26-21.76-5.22-43.71-5.91-65.7
					c-0.69-22.09-0.11-44.23,1.74-66.25c1.84-21.93,4.94-43.74,9.27-65.32c4.35-21.67,9.94-43.1,16.75-64.13
					c6.78-20.94,14.76-41.48,23.94-61.48c1.12-2.44,2.26-4.86,3.41-7.28C445.69,618.09,442.25,616.05,441.14,618.38L441.14,618.38z"
					/>
			</g>
		</g>
		<g>
			<g>
				<path class="st2" d="M671.34,617.09c11.75,22.8,21.41,46.62,29.15,71.07c7.41,23.41,13.08,47.35,17.2,71.55
					c3.88,22.79,6.37,45.81,7.62,68.9c1.14,21.05,1.26,42.15,0.35,63.21c-0.78,18.13-2.29,36.25-4.71,54.24
					c-0.25,1.86-0.51,3.73-0.78,5.59c-0.16,1.07,0.26,2.15,1.4,2.46c0.94,0.26,2.3-0.32,2.46-1.4c2.58-17.75,4.3-35.61,5.27-53.52
					c1.13-20.85,1.26-41.76,0.39-62.62c-0.97-23.18-3.19-46.31-6.74-69.23c-3.76-24.33-9.06-48.44-16.09-72.03
					c-7.3-24.52-16.48-48.49-27.69-71.49c-1.43-2.93-2.89-5.84-4.38-8.73C673.61,612.78,670.16,614.8,671.34,617.09L671.34,617.09z"
					/>
			</g>
		</g>
		<g>
			<g>
				<path class="st2" d="M528.63,822.12c8.71,4.89,17.67,9.31,26.38,14.2c-0.33-0.58-0.66-1.15-0.99-1.73
					c0,30.72-0.25,61.44,0.09,92.16c0.09,8.47,0.23,16.94,0.43,25.41c0.06,2.57,4.06,2.58,4,0c-0.72-30.56-0.63-61.12-0.56-91.69
					c0.02-8.63,0.04-17.26,0.04-25.89c0-0.7-0.38-1.38-0.99-1.73c-8.71-4.89-17.67-9.31-26.38-14.2
					C528.4,817.4,526.38,820.85,528.63,822.12L528.63,822.12z"/>
			</g>
		</g>
		<g>
			<g>
				<path class="st2" d="M405.49,104.12c4.35,6.35,7.49,13.38,9.17,20.9c1.61,7.18,1.85,14.6,1.15,21.91
					c-1.45,15.11-6.95,29.71-13.7,43.19c-1.68,3.35-3.45,6.65-5.3,9.91c-1.92,3.38-3.72,6.8-5.81,10.08
					c-3.78,5.93-8.16,11.49-13.29,16.31c-8.48,7.95-19.31,13.69-31.17,13.49c-13.31-0.23-25.11-7.77-34.28-16.89
					c-1.46-1.45-2.86-2.95-4.23-4.49c-1.71-1.93-4.53,0.91-2.83,2.83c9.53,10.73,21.83,20.18,36.43,22.16
					c12.54,1.7,24.59-2.74,34.41-10.41c12-9.38,19.69-22.48,26.79-35.68c7.47-13.9,13.73-28.84,16.22-44.5
					c2.47-15.53,0.89-31.53-6.78-45.46c-1.02-1.85-2.13-3.63-3.32-5.37C407.5,99.99,404.03,101.98,405.49,104.12L405.49,104.12z"/>
			</g>
		</g>
		<g>
			<g>
				<path class="st2" d="M297.26,141.68c-3.83-3.8-8.77-7.17-14.37-7.2c-4.22-0.03-8.17,2.05-10.83,5.28
					c-6.1,7.41-6.12,18.77-0.84,26.62c3.92,5.83,10.15,9.39,16.86,11.1c2.5,0.64,3.56-3.22,1.06-3.86
					c-5.31-1.36-10.1-3.85-13.58-8.05c-2.55-3.08-4.04-7.37-4.19-11.27c-0.04-1.06,0.01-2.12,0.12-3.18
					c0.01-0.12,0.03-0.25,0.04-0.37c-0.01,0.08-0.06,0.38,0.01-0.02c0.04-0.24,0.08-0.48,0.12-0.72c0.1-0.5,0.21-1.01,0.34-1.5
					c0.12-0.43,0.24-0.86,0.39-1.28c0.08-0.22,0.16-0.45,0.24-0.67c0.04-0.11,0.08-0.22,0.13-0.33c0.21-0.54-0.17,0.36,0.07-0.17
					c0.39-0.86,0.83-1.69,1.34-2.48c0.12-0.19,0.25-0.37,0.38-0.55c0.06-0.09,0.13-0.18,0.2-0.27c0.18-0.24-0.2,0.24-0.01,0.01
					c0.29-0.36,0.59-0.71,0.91-1.05c0.3-0.31,0.61-0.61,0.93-0.89c0.16-0.14,0.32-0.28,0.49-0.41c-0.35,0.28,0.2-0.13,0.3-0.2
					c0.35-0.24,0.71-0.46,1.08-0.66c0.18-0.1,0.37-0.19,0.56-0.28c0.07-0.03,0.14-0.07,0.21-0.1c0.48-0.22-0.39,0.14,0.1-0.04
					c0.4-0.14,0.79-0.28,1.2-0.38c0.21-0.05,0.41-0.1,0.62-0.14c0.1-0.02,0.21-0.04,0.32-0.06c0.39-0.07-0.23,0.02,0.03-0.01
					c0.52-0.06,1.04-0.08,1.57-0.07c0.26,0.01,0.51,0.02,0.77,0.04c0.12,0.01,0.23,0.02,0.35,0.03c0.24,0.03-0.31-0.05,0.08,0.01
					c1.07,0.18,2.38,0.57,3.21,0.92c2.49,1.07,4.95,3,6.98,5.02C296.26,146.32,299.09,143.5,297.26,141.68L297.26,141.68z"/>
			</g>
		</g>
		<g>
			<g>
				<path class="st2" d="M401.53,92.88c-2.29,8.05-6.1,15.65-11.39,22.16c-5.07,6.23-11.26,11.43-18.13,15.57
					c-14.3,8.62-31.08,12.78-47.66,13.69c-9.34,0.51-18.76,0.03-27.98-1.58c-1.06-0.18-2.15,0.28-2.46,1.4
					c-0.26,0.96,0.33,2.27,1.4,2.46c17.22,3,35.16,2.54,52.13-1.71c16.53-4.13,32.6-12.2,43.96-25.14
					c6.54-7.44,11.27-16.25,13.99-25.77C406.1,91.46,402.24,90.4,401.53,92.88L401.53,92.88z"/>
			</g>
		</g>
		<g>
			<g>
				<path class="st2" d="M286.6,175.56c0.36,10.45,0.18,21.02-1.48,31.36c-1.18,7.34-3.07,14.75-6.53,21.3
					c-1.38,2.61-2.96,5-4.75,7.06c-1.77,2.03-3.65,3.72-5.62,5.04c-1.04,0.7-2.13,1.34-3.26,1.9c-0.27,0.14-0.55,0.27-0.82,0.39
					c-0.1,0.04-0.86,0.38-0.52,0.24c-0.59,0.25-1.19,0.47-1.79,0.68c-1.19,0.41-2.4,0.74-3.63,1.01c-0.61,0.13-1.22,0.25-1.83,0.35
					c-0.77,0.12-0.71,0.12-1.62,0.21c-3,0.31-6.03,0.26-9.03-0.04c-2.93-0.29-6.24-0.93-9.41-1.75c-2.49-0.64-3.56,3.21-1.06,3.86
					c10.96,2.82,23.23,3.5,33.35-2.37c11.79-6.84,17.22-20.47,19.74-33.23c2.34-11.82,2.68-23.99,2.27-36.01
					C290.52,172.99,286.52,172.98,286.6,175.56L286.6,175.56z"/>
			</g>
		</g>
		<g>
			<g>
				<path class="st2" d="M388.41,270.44c7.67,5.55,15.22,11.25,22.66,17.11c0.85,0.67,2,0.83,2.83,0c0.69-0.69,0.85-2.16,0-2.83
					c-7.7-6.07-15.53-11.98-23.47-17.73c-0.88-0.63-2.23-0.15-2.74,0.72C387.1,268.71,387.53,269.81,388.41,270.44L388.41,270.44z"
					/>
			</g>
		</g>
		<g>
			<g>
				<path class="st2" d="M165.32,354.09c-7.46,15.42-15.19,30.72-23.19,45.86c-2.29,4.33-4.6,8.64-6.93,12.95
					c-1.23,2.26,2.23,4.29,3.45,2.02c8.16-15.06,16.05-30.27,23.66-45.62c2.18-4.39,4.33-8.78,6.46-13.19
					C169.89,353.8,166.44,351.77,165.32,354.09L165.32,354.09z"/>
			</g>
		</g>
		<g>
			<g>
				<path class="st2" d="M172.03,225.64c-7.21,1.04-14.15,3.35-20.75,6.39c-7.22,3.33-13.99,7.58-20.34,12.34
					c-7.16,5.35-13.84,11.31-20.13,17.65c-6.8,6.86-13.15,14.17-19.16,21.74c-6.44,8.13-12.5,16.56-18.23,25.21
					c-5.9,8.93-11.45,18.08-16.69,27.42c-5.31,9.45-10.29,19.08-14.97,28.86c-4.65,9.72-8.99,19.58-13.02,29.58
					c-3.84,9.53-7.39,19.18-10.59,28.95c-2.98,9.09-5.65,18.29-7.9,27.59c-2.03,8.35-3.72,16.78-4.9,25.29
					c-1.02,7.42-1.71,14.9-1.64,22.4c0.05,6.16,0.58,12.4,2.1,18.38c2.11,8.31,6.03,16.21,12.05,22.38
					c5.63,5.77,12.85,9.72,20.54,11.99c8.6,2.54,17.74,3.11,26.65,2.59c10.49-0.61,20.88-2.68,30.98-5.56
					c11.41-3.26,22.5-7.6,33.26-12.6c11.54-5.37,22.7-11.57,33.43-18.41c11.1-7.07,21.75-14.85,31.86-23.27
					c4.85-4.04,9.57-8.23,14.15-12.58c0.64-0.61,0.75-1.67,0.31-2.42c-11.27-19.13-18.71-40.4-21.9-62.37
					c-0.89-6.12-1.4-12.3-1.61-18.48c-0.04-1.24-1.25-2.35-2.53-1.93c-15.5,5.13-30.82,10.77-45.93,16.94
					c-15.13,6.18-30.05,12.85-44.72,20.04c-8.32,4.07-16.55,8.31-24.71,12.7c-2.27,1.22-0.25,4.68,2.02,3.45
					c14.3-7.7,28.86-14.92,43.65-21.63c14.71-6.67,29.64-12.84,44.77-18.5c8.6-3.21,17.26-6.26,25.98-9.14
					c-0.84-0.64-1.69-1.29-2.53-1.93c0.76,22.72,5.99,45.18,15.29,65.92c2.6,5.81,5.54,11.46,8.77,16.95
					c0.1-0.81,0.21-1.62,0.31-2.42c-9.33,8.86-19.26,17.08-29.67,24.64c-10.41,7.56-21.29,14.48-32.56,20.67
					c-10.6,5.81-21.56,11-32.87,15.26c-10.28,3.87-20.87,7.03-31.69,8.98c-9.28,1.67-18.81,2.41-28.22,1.47
					c-7.78-0.78-15.66-2.93-22.38-6.99c-6.52-3.94-11.64-9.62-15.1-16.52c-1.79-3.58-3.1-7.43-4.02-11.39
					c-0.31-1.36-0.58-2.73-0.79-4.11c-0.05-0.32-0.1-0.65-0.15-0.97c-0.01-0.07-0.09-0.64-0.05-0.39c0.03,0.23-0.04-0.3-0.05-0.4
					c-0.09-0.73-0.17-1.47-0.24-2.2c-0.64-6.72-0.47-13.51,0.09-20.23c0.66-7.93,1.84-15.48,3.44-23.39
					c1.79-8.87,4.01-17.65,6.55-26.33c2.77-9.51,5.91-18.91,9.34-28.19c3.58-9.68,7.47-19.25,11.66-28.68
					c4.33-9.74,8.96-19.35,13.89-28.8c4.95-9.49,10.2-18.81,15.78-27.94c5.41-8.85,11.13-17.51,17.22-25.91
					c5.73-7.92,11.8-15.6,18.28-22.92c6.05-6.84,12.45-13.37,19.31-19.39c6.2-5.44,12.67-10.37,19.77-14.65
					c6.43-3.88,12.8-6.93,19.87-9.06c3.21-0.97,6.48-1.71,9.79-2.18c1.07-0.15,1.66-1.51,1.4-2.46
					C174.17,225.89,173.1,225.48,172.03,225.64L172.03,225.64z"/>
			</g>
		</g>
		<g>
			<g>
				<path class="st2" d="M200.38,461.55c2.83-3,6.05-5.74,9.88-7.37c1.8-0.77,3.76-1.29,5.71-1.45c1.11-0.09,2.16-0.08,3.25-0.36
					c1.06-0.27,2.1-0.6,3.13-0.96c8.3-2.96,15.71-8.35,21.64-14.82c3.29-3.58,6.19-7.56,8.45-11.87c-0.91,0.24-1.82,0.48-2.74,0.72
					c3.87,1.98,7.93,3.58,12.11,4.77c2.48,0.71,3.54-3.15,1.06-3.86c-3.86-1.1-7.58-2.55-11.15-4.37c-0.93-0.47-2.21-0.28-2.74,0.72
					c-3.96,7.55-9.89,14.16-16.85,19.07c-3.45,2.44-7.21,4.53-11.21,5.91c-0.91,0.31-1.83,0.59-2.76,0.84
					c-1.02,0.27-2.11,0.19-3.16,0.32c-2.09,0.26-4.09,0.78-6.04,1.58c-4.41,1.83-8.15,4.86-11.41,8.3
					C195.78,460.6,198.6,463.43,200.38,461.55L200.38,461.55z"/>
			</g>
		</g>
		<g>
			<g>
				<path class="st2" d="M255.2,407.01c3.63,1.71,7.11,3.85,10.27,6.31c3.3,2.58,6.67,5.69,8.43,9.56c0.68,1.48,1.06,3.15,0.85,4.71
					c-0.25,1.83-1.26,3.2-2.44,4.56c-2.84,3.26-6.42,6.06-10.6,7.33c-6.07,1.86-11.91-0.21-16.82-3.92
					c-0.86-0.65-2.24-0.14-2.74,0.72c-0.6,1.03-0.15,2.08,0.72,2.74c5.19,3.93,11.48,6.06,17.98,4.8c5.02-0.97,9.56-3.93,13.1-7.55
					c1.66-1.7,3.32-3.58,4.17-5.82c0.78-2.06,0.83-4.31,0.36-6.45c-1.05-4.75-4.64-8.75-8.2-11.86c-3.91-3.43-8.36-6.37-13.07-8.58
					C254.9,402.47,252.87,405.92,255.2,407.01L255.2,407.01z"/>
			</g>
		</g>
		<g>
			<g>
				<path class="st2" d="M260.33,392.6c2.54,0.61,4.75,1.88,7.01,3.45c2.68,1.86,5.11,4.09,7.3,6.5c2.19,2.4,4.14,5.03,5.67,7.91
					c1.29,2.43,2.28,5.19,2.29,7.75c0.01,2.61-1.11,4.88-3.47,6.48c-2.12,1.43-0.12,4.9,2.02,3.45c2.7-1.82,4.72-4.43,5.26-7.69
					c0.55-3.36-0.25-6.68-1.57-9.77c-2.9-6.8-8.24-12.65-14.08-17.07c-2.78-2.11-5.93-4.04-9.36-4.87
					C258.89,388.14,257.82,391.99,260.33,392.6L260.33,392.6z"/>
			</g>
		</g>
		<g>
			<g>
				<path class="st2" d="M269.55,377.73c5.13,2.26,9.62,6.06,13.17,10.37c1.65,2.01,3.17,4.29,4.1,6.74
					c0.82,2.17,1.22,4.37,0.6,6.45c-0.78,2.61-3.27,4.33-5.82,5.46c-0.99,0.44-1.22,1.88-0.72,2.74c0.6,1.02,1.75,1.16,2.74,0.72
					c2.87-1.27,5.62-3.27,7-6.18c1.26-2.65,1.35-5.57,0.65-8.39c-1.53-6.18-6.17-11.58-10.9-15.62c-2.66-2.27-5.57-4.32-8.79-5.74
					c-0.99-0.44-2.15-0.29-2.74,0.72C268.33,375.84,268.55,377.29,269.55,377.73L269.55,377.73z"/>
			</g>
		</g>
		<g>
			<g>
				<path class="st2" d="M276.78,381.67c0.84-0.02,1.69,0.04,2.53,0.12c1.31,0.12,2.09,0.23,3.14,0.39c3.01,0.44,6,0.96,8.99,1.46
					c6.81,1.15,13.64,2.34,20.53,2.88c2.65,0.21,5.35,0.34,8,0.05c2.05-0.23,4.31-0.63,5.85-2.13c0.78-0.76,1.48-2.06,1.19-3.17
					c-0.29-1.12-1.01-2.27-1.65-3.22c-1.55-2.28-3.53-4.16-5.7-5.83c-5.24-4.02-11.43-6.74-17.63-8.92
					c-7.22-2.54-14.72-4.29-22.29-5.42c-7.42-1.11-14.97-1.7-22.47-1.28c-3.31,0.18-6.63,0.56-9.88,1.25
					c-1.39,0.3-2.77,0.66-4.12,1.11c-0.66,0.22-1.44,0.42-2.05,0.78c-1.16,0.68-2.16,1.96-3.12,2.88
					c-15.09,14.51-28.37,31.15-45.57,43.32c-2.18,1.54-4.41,3-6.7,4.38c-2.2,1.33-0.19,4.79,2.02,3.45
					c16.98-10.25,30.3-25.07,43.96-39.19c3.86-3.99,7.77-7.93,11.84-11.71c-0.29,0.17-0.59,0.34-0.88,0.51
					c4.91-1.95,10.12-2.61,15.33-2.84c6.36-0.29,12.76,0.11,19.06,0.96c6.64,0.9,13.22,2.32,19.63,4.27
					c5.69,1.73,11.29,3.89,16.43,6.91c2.42,1.43,4.46,2.83,6.41,4.73c0.42,0.41,0.83,0.84,1.22,1.28c0.19,0.21,0.37,0.43,0.55,0.65
					c-0.05-0.06,0.13,0.17,0.3,0.41c0.31,0.43,0.6,0.88,0.86,1.35c0.14,0.25,0.27,0.5,0.4,0.76c0.05,0.1,0.1,0.2,0.14,0.31
					c0.18,0.39-0.11-0.29,0.06,0.14c0-0.35,0-0.71,0-1.06c-0.02,0.09-0.07,0.19-0.08,0.28c-0.03,0.35,0.23-0.43,0.05-0.13
					c-0.26,0.44,0.08,0.01-0.03,0.07c-0.07,0.04-0.16,0.15-0.22,0.21c-0.27,0.27,0.41-0.24,0.07-0.05c-0.2,0.11-0.4,0.23-0.6,0.34
					c-0.38,0.21,0.44-0.15,0.01,0c-0.13,0.04-0.25,0.09-0.38,0.13c-0.23,0.07-0.46,0.14-0.69,0.19c-0.3,0.07-0.61,0.13-0.92,0.18
					c-0.11,0.02-0.22,0.03-0.33,0.05c0.51-0.07-0.24,0.02-0.33,0.03c-3.36,0.33-6.78,0.05-10.12-0.29
					c-7.92-0.81-15.74-2.35-23.59-3.6c-3.01-0.48-6.15-1.11-9.22-1.03C274.21,377.73,274.2,381.73,276.78,381.67L276.78,381.67z"/>
			</g>
		</g>
		<g>
			<g>
				<path class="st2" d="M114.25,558.87c9.04,5.71,18.14,11.34,27.56,16.41c9.71,5.22,19.78,9.81,30.2,13.45
					c11.55,4.03,23.5,6.84,35.6,8.57c14.95,2.13,30.07,2.7,45.16,2.23c19.33-0.61,38.6-2.86,57.68-5.94c2.7-0.44,5.4-0.89,8.1-1.37
					c1.06-0.19,1.66-1.49,1.4-2.46c-0.31-1.12-1.39-1.58-2.46-1.4c-19.44,3.4-39.06,5.97-58.78,6.93
					c-15.25,0.74-30.59,0.52-45.76-1.29c-12.25-1.46-24.38-4.05-36.11-7.85c-10.37-3.36-20.16-7.61-29.84-12.64
					c-9.37-4.87-18.42-10.35-27.36-15.96c-1.12-0.71-2.25-1.41-3.37-2.12C114.09,554.04,112.08,557.5,114.25,558.87L114.25,558.87z"
					/>
			</g>
		</g>
		<g>
			<g>
				<path class="st2" d="M108.75,557.7c-8.37,9.39-16.15,19.31-23.28,29.68c-6.99,10.17-13.35,20.78-19.07,31.71
					c-5.75,11-10.84,22.33-15.35,33.89c-4.55,11.67-8.49,23.58-11.89,35.64c-3.47,12.34-6.38,24.83-8.82,37.42
					c-2.51,12.99-4.52,26.08-6.13,39.21c-1.66,13.48-2.89,27.01-3.78,40.56c-0.92,13.9-1.49,27.82-1.79,41.74
					c-0.31,14.4-0.34,28.8-0.17,43.2c0.18,14.78,0.57,29.55,1.1,44.32c0.13,3.69,0.28,7.39,0.42,11.08c0.1,2.57,4.1,2.58,4,0
					c-0.6-14.78-1.07-29.57-1.35-44.36c-0.27-14.43-0.36-28.86-0.18-43.28c0.17-13.96,0.58-27.93,1.33-41.87
					c0.73-13.6,1.76-27.19,3.21-40.74c1.4-13.09,3.18-26.14,5.44-39.12c2.2-12.65,4.86-25.23,8.06-37.66
					c3.11-12.08,6.73-24.03,10.94-35.77c4.15-11.55,8.88-22.89,14.24-33.93c5.36-11.03,11.36-21.76,17.98-32.09
					c6.67-10.4,13.99-20.38,21.92-29.85c1.96-2.34,3.96-4.65,6-6.94C113.29,558.62,110.47,555.78,108.75,557.7L108.75,557.7z"/>
			</g>
		</g>
		<g>
			<g>
				<path class="st2" d="M243.45,760.85c-8.68,8.26-17.7,16.16-27.02,23.68c-0.84,0.68-0.71,2.12,0,2.83c0.83,0.83,1.98,0.68,2.83,0
					c9.33-7.52,18.34-15.42,27.02-23.68C248.15,761.9,245.32,759.07,243.45,760.85L243.45,760.85z"/>
			</g>
		</g>
		<g>
			<g>
				<path class="st2" d="M218.08,784.12c-2.06,19.05-4.31,38.09-6.58,57.11c-2.68,22.41-5.36,44.83-7.92,67.25
					c-1.87,16.34-3.68,32.69-5.45,49.04c-0.12,1.08,1,2,2,2c1.18,0,1.88-0.92,2-2c2.92-27.01,5.97-54,9.16-80.97
					c2.38-20.18,4.84-40.36,7.2-60.55c1.24-10.62,2.45-21.25,3.59-31.89c0.12-1.08-1-2-2-2C218.9,782.12,218.2,783.04,218.08,784.12
					L218.08,784.12z"/>
			</g>
		</g>
		<g>
			<g>
				<path class="st2" d="M271.36,246.11c11.19,14.87,30.8,23.44,49.29,19.66c5.23-1.07,10.24-3.21,14.64-6.24
					c2.11-1.45,0.11-4.92-2.02-3.45c-14.61,10.05-33.96,7.77-48.07-2.04c-3.94-2.74-7.5-6.11-10.38-9.95
					c-0.65-0.86-1.73-1.31-2.74-0.72C271.23,243.87,270.71,245.24,271.36,246.11L271.36,246.11z"/>
			</g>
		</g>
		<g>
			<g>
				<path class="st2" d="M338.56,243.88c-1.64,4.35-3.28,8.7-4.92,13.05c-0.37,0.98,0.41,2.24,1.4,2.46
					c1.14,0.26,2.06-0.35,2.46-1.4c1.64-4.35,3.28-8.7,4.92-13.05c0.37-0.98-0.41-2.24-1.4-2.46
					C339.88,242.22,338.96,242.83,338.56,243.88L338.56,243.88z"/>
			</g>
		</g>
		<g>
			<g>
				<path class="st2" d="M370.97,174.54c-0.39,7.17-1.23,14.3-2.52,21.36c-0.19,1.06,0.29,2.16,1.4,2.46
					c0.97,0.27,2.27-0.33,2.46-1.4c1.35-7.41,2.25-14.9,2.66-22.42C375.11,171.96,371.11,171.97,370.97,174.54L370.97,174.54z"/>
			</g>
		</g>
		<g>
			<g>
				<path class="st2" d="M334.34,198.4c11.25,5.74,22.61,11.29,34.05,16.64c-0.24-0.91-0.48-1.82-0.72-2.74
					c-4.43,6.04-11.85,9.8-19.23,8.47c-6.23-1.13-11.83-5.22-13.34-11.44c-0.94-3.87,0.04-8.04,1.94-11.63
					c1.21-2.27-2.25-4.3-3.45-2.02c-2.18,4.1-3.33,8.65-2.62,13.29c0.57,3.76,2.47,7.25,5.17,9.92c5.78,5.7,14.77,7.54,22.41,5
					c5.18-1.72,9.37-5.19,12.57-9.56c0.6-0.82,0.19-2.31-0.72-2.74c-11.44-5.35-22.8-10.9-34.05-16.64
					C334.07,193.78,332.04,197.23,334.34,198.4L334.34,198.4z"/>
			</g>
		</g>
		<g>
			<g>
				<path class="st2" d="M344.34,149.92c0.62-0.37,0.99-0.55,1.47-0.72c0.61-0.22,1.25-0.37,1.89-0.48
					c0.64-0.11-0.19,0.01,0.18-0.02c0.17-0.02,0.34-0.03,0.51-0.04c0.34-0.02,0.69-0.03,1.03-0.02c0.31,0.01,0.62,0.03,0.93,0.06
					c0.14,0.02,0.14,0.01-0.02-0.01c0.07,0.01,0.14,0.02,0.2,0.03c0.17,0.03,0.34,0.06,0.51,0.09c0.64,0.13,1.27,0.31,1.89,0.54
					c0.13,0.05,0.26,0.1,0.38,0.15c-0.26-0.11,0.14,0.07,0.18,0.09c0.31,0.15,0.61,0.31,0.91,0.49c0.27,0.16,0.52,0.33,0.78,0.5
					c0.53,0.37-0.12-0.11,0.17,0.12c0.13,0.11,0.26,0.22,0.39,0.33c0.26,0.23,0.5,0.47,0.73,0.72c0.09,0.1,0.18,0.2,0.27,0.31
					c0.42,0.49-0.19-0.28,0.2,0.25c0.64,0.87,1.73,1.3,2.74,0.72c0.86-0.5,1.36-1.86,0.72-2.74c-4.07-5.53-12.1-7.38-18.07-3.82
					C340.12,147.79,342.13,151.25,344.34,149.92L344.34,149.92z"/>
			</g>
		</g>
		<g>
			<g>
				<path class="st2" d="M389.03,158.41c0.56-0.25-0.33,0.09,0.25-0.1c0.16-0.05,0.31-0.11,0.47-0.16c0.31-0.1,0.63-0.18,0.95-0.25
					c0.16-0.03,0.32-0.06,0.48-0.09c0.6-0.11-0.36,0,0.25-0.03c0.33-0.02,0.65-0.04,0.98-0.05c0.33,0,0.66,0.01,0.98,0.04
					c0.02,0,0.65,0.07,0.25,0.02c0.16,0.02,0.33,0.05,0.49,0.08c0.68,0.13,1.35,0.31,2,0.55c0.38,0.14,0.89,0.37,1.49,0.72
					c0.31,0.18,0.62,0.38,0.91,0.59c0.08,0.06,0.36,0.27,0.15,0.1c0.13,0.1,0.25,0.21,0.38,0.32c1.16,1.01,1.69,1.71,2.35,3.09
					c0.47,0.97,1.86,1.23,2.74,0.72c1-0.58,1.19-1.76,0.72-2.74c-3.11-6.48-11.44-9.14-17.87-6.27c-0.99,0.44-1.22,1.88-0.72,2.74
					C386.89,158.71,388.04,158.85,389.03,158.41L389.03,158.41z"/>
			</g>
		</g>
		<path class="st2" d="M345.31,174.16c-0.08-5.64,8.78-5.64,8.69,0C354.08,179.8,345.22,179.8,345.31,174.16z"/>
		<path class="st2" d="M385.07,185.48c-0.08-5.64,8.78-5.64,8.69,0C393.84,191.12,384.99,191.12,385.07,185.48z"/>
		<circle class="st2" cx="308.69" cy="305.57" r="5"/>
		<circle class="st2" cx="306.61" cy="426.42" r="5"/>
		<circle class="st2" cx="280.14" cy="521.88" r="5"/>
		<g>
			<g>
				<path class="st2" d="M692.67,100.78c-2.37,15.24-1.26,30.85,2.29,45.82c3.51,14.77,9.44,29.15,17.76,41.87
					c7.34,11.21,16.8,21.64,28.7,28.07c10.82,5.85,23.38,7.67,35.19,3.82c15.38-5.01,27.12-17.5,36.07-30.48
					c1.49-2.15,2.9-4.35,4.27-6.58c1.35-2.2-2.11-4.21-3.45-2.02c-8.37,13.62-19.3,27.36-34.36,33.88
					c-10.54,4.56-22.16,4.21-32.45-0.46c-11.5-5.22-20.82-14.5-28.07-24.68c-8.42-11.83-14.52-25.27-18.43-39.23
					c-3.98-14.21-5.73-29.15-4.29-43.88c0.17-1.69,0.38-3.38,0.64-5.06c0.17-1.07-0.27-2.15-1.4-2.46
					C694.18,99.12,692.83,99.71,692.67,100.78L692.67,100.78z"/>
			</g>
		</g>
		<g>
			<g>
				<path class="st2" d="M820.05,119.72c0.42-3.04,1.14-6.32,2.41-8.86c0.25-0.5,0.52-0.99,0.82-1.46c0.16-0.26,0.34-0.51,0.52-0.76
					c0.04-0.06,0.23-0.3,0.01-0.02c0.11-0.14,0.22-0.27,0.33-0.4c0.32-0.37,0.67-0.72,1.03-1.05c0.12-0.11,0.54-0.44,0.19-0.18
					c0.22-0.17,0.45-0.32,0.68-0.47c0.19-0.12,0.38-0.23,0.57-0.33c0.09-0.05,0.67-0.32,0.41-0.2c-0.26,0.11,0.32-0.12,0.42-0.15
					c0.22-0.07,0.44-0.14,0.67-0.19c0.2-0.05,0.41-0.08,0.61-0.12c0.3-0.06-0.52,0.04-0.05,0.01c0.09-0.01,0.18-0.02,0.28-0.02
					c0.47-0.02,0.93-0.02,1.39,0.01c0.15,0.01,0.73,0.1,0.17,0.01c0.21,0.03,0.42,0.07,0.63,0.12c0.45,0.1,0.9,0.22,1.34,0.37
					c0.24,0.08,0.47,0.17,0.7,0.26c-0.41-0.16,0.07,0.03,0.22,0.1c0.47,0.23,0.93,0.47,1.38,0.74c0.42,0.25,0.81,0.53,1.21,0.8
					c0.09,0.06,0.18,0.13,0.27,0.2c-0.31-0.23-0.07-0.06-0.01-0.01c0.22,0.17,0.44,0.35,0.65,0.54c0.83,0.72,1.61,1.51,2.32,2.35
					c0.5,0.58,0.45,0.52,0.8,1.01c0.34,0.47,0.66,0.95,0.97,1.44c0.61,0.98,1.15,2,1.62,3.05c1.75,3.93,2.27,8.86,1.05,13.2
					c-1.84,6.57-7.37,11.39-13.52,14.58c-0.98,0.51-1.21,1.82-0.72,2.74c5.19,9.68,10.39,19.36,15.58,29.04
					c1.22,2.27,4.67,0.25,3.45-2.02c-5.19-9.68-10.39-19.36-15.58-29.04c-0.24,0.91-0.48,1.82-0.72,2.74
					c6.41-3.32,12.07-8.24,14.73-15.08c2-5.14,1.86-11.03-0.02-16.19c-2.95-8.08-12.04-18.26-21.63-14.02
					c-6.08,2.69-8.22,10.23-9.05,16.22c-0.15,1.07,0.26,2.15,1.4,2.46C818.53,121.37,819.9,120.8,820.05,119.72L820.05,119.72z"/>
			</g>
		</g>
		<g>
			<g>
				<path class="st2" d="M692.52,83.36c6.79,17.05,22.82,31,41.49,32.58c5.21,0.44,10.5-0.23,15.45-1.89
					c2.43-0.81,1.39-4.68-1.06-3.86c-16.74,5.61-34.22-2.46-44.86-15.67c-2.96-3.68-5.42-7.85-7.17-12.23c-0.4-1-1.34-1.71-2.46-1.4
					C692.96,81.16,692.12,82.35,692.52,83.36L692.52,83.36z"/>
			</g>
		</g>
		<g>
			<g>
				<path class="st2" d="M737.24,81.04c5.54,14.39,17.12,28.02,32.59,31.86c4.45,1.1,8.98,1.25,13.5,0.6
					c1.07-0.15,1.66-1.51,1.4-2.46c-0.32-1.15-1.39-1.55-2.46-1.4c-14.61,2.08-27.79-7.3-35.57-18.95
					c-2.24-3.36-4.14-6.95-5.6-10.72c-0.39-1.01-1.34-1.7-2.46-1.4C737.68,78.84,736.85,80.02,737.24,81.04L737.24,81.04z"/>
			</g>
		</g>
		<g>
			<g>
				<path class="st2" d="M798.25,102.18c5.25,6.65,11.84,12.21,19.25,16.31c2.25,1.25,4.27-2.21,2.02-3.45
					c-7.14-3.95-13.39-9.28-18.44-15.69c-0.67-0.85-2.13-0.7-2.83,0C797.42,100.19,797.58,101.33,798.25,102.18L798.25,102.18z"/>
			</g>
		</g>
		<g>
			<g>
				<path class="st2" d="M732.76,150.76c-0.07,8.02,0.23,16.03,0.91,24.02c0.22,2.55,4.22,2.57,4,0c-0.68-7.99-0.98-16-0.91-24.02
					C736.78,148.19,732.78,148.18,732.76,150.76L732.76,150.76z"/>
			</g>
		</g>
		<g>
			<g>
				<path class="st2" d="M740.85,189.49c12.46-6.28,25.61-11.11,39.16-14.43c-0.82-0.47-1.64-0.93-2.46-1.4
					c1.97,7.23-0.15,14.52-5.97,19.03c-5.63,4.36-13.26,5.45-19.87,2.91c-4.16-1.6-7.57-4.81-9.93-8.57
					c-1.36-2.18-4.82-0.17-3.45,2.02c4.89,7.82,13.45,12.7,22.78,11.8c8.1-0.78,15.97-5.49,19.37-13.09
					c2.15-4.81,2.32-10.11,0.94-15.17c-0.29-1.06-1.41-1.65-2.46-1.4c-13.88,3.4-27.35,8.4-40.12,14.83
					C736.53,187.19,738.55,190.64,740.85,189.49L740.85,189.49z"/>
			</g>
		</g>
		<g>
			<g>
				<path class="st2" d="M703.79,136.58c0.16-0.26,0.33-0.52,0.52-0.77c-0.17,0.22,0.01,0,0.09-0.1c0.1-0.12,0.2-0.23,0.31-0.34
					c0.21-0.22,0.43-0.44,0.66-0.64c0.09-0.08,0.19-0.16,0.28-0.24c0.44-0.38-0.3,0.19,0.18-0.14c0.49-0.33,0.98-0.64,1.51-0.91
					c0.14-0.07,0.28-0.13,0.42-0.2c0.33-0.15-0.09,0.03,0.12-0.05c0.29-0.11,0.58-0.21,0.88-0.3c0.27-0.08,0.54-0.15,0.81-0.21
					c0.15-0.03,0.3-0.06,0.46-0.09c0.15-0.03,0.41-0.06,0.11-0.03c0.61-0.08,1.23-0.1,1.85-0.07c0.15,0.01,0.31,0.02,0.46,0.03
					c0.08,0.01,0.51,0.06,0.11,0c0.3,0.04,0.61,0.1,0.91,0.17c0.27,0.06,0.54,0.14,0.8,0.23c0.15,0.05,0.29,0.1,0.44,0.16
					c0.4,0.14-0.22-0.11,0.21,0.09c0.98,0.45,2.16,0.28,2.74-0.72c0.51-0.86,0.27-2.28-0.72-2.74c-5.84-2.71-13.16-0.67-16.6,4.83
					c-0.57,0.92-0.2,2.2,0.72,2.74C702.01,137.86,703.22,137.5,703.79,136.58L703.79,136.58z"/>
			</g>
		</g>
		<g>
			<g>
				<path class="st2" d="M749.27,126.8c4.45-2.55,10.09-2.66,14.62-0.23c2.27,1.22,4.29-2.23,2.02-3.45
					c-5.79-3.11-12.95-3.04-18.66,0.23C745.02,124.63,747.03,128.09,749.27,126.8L749.27,126.8z"/>
			</g>
		</g>
		<path class="st2" d="M714.75,159.3c-0.07-4.5,7-4.5,6.94,0C721.76,163.8,714.69,163.8,714.75,159.3z"/>
		<path class="st2" d="M754.43,150.76c-0.07-4.5,7-4.5,6.94,0C761.44,155.26,754.37,155.26,754.43,150.76z"/>
		<g>
			<g>
				<path class="st2" d="M778.77,233.59c6.33,7.16,14.46,13.06,23.95,15.05c8.24,1.73,16.62,0.41,24.28-2.94
					c15.67-6.87,27.85-21.63,33.86-37.4c3.13-8.22,4.61-17.32,2.77-26.01c-0.53-2.52-4.39-1.45-3.86,1.06
					c1.45,6.89,0.43,14.3-1.79,21.09c-2.47,7.56-6.49,14.69-11.51,20.85c-9.65,11.85-24.2,21.72-40.08,19.92
					c-9.88-1.12-18.34-7.16-24.79-14.46C779.89,228.83,777.07,231.66,778.77,233.59L778.77,233.59z"/>
			</g>
		</g>
		<g>
			<g>
				<path class="st2" d="M777.18,219.46c1.53,3.3,3.54,6.35,5.92,9.1c0.69,0.8,2.13,0.76,2.83,0c0.78-0.85,0.73-1.98,0-2.83
					c-0.27-0.31-0.54-0.63-0.8-0.95c-0.06-0.08-0.13-0.16-0.19-0.24c0-0.01-0.3-0.39-0.13-0.16c0.16,0.21-0.05-0.07-0.08-0.1
					c-0.06-0.08-0.12-0.16-0.19-0.25c-0.51-0.68-0.99-1.39-1.45-2.1c-0.92-1.44-1.74-2.93-2.45-4.48c-0.44-0.95-1.89-1.26-2.74-0.72
					C776.91,217.36,776.71,218.44,777.18,219.46L777.18,219.46z"/>
			</g>
		</g>
		<g>
			<g>
				<path class="st2" d="M693.98,241.54c9.81-9.87,21.17-18.03,33.63-24.21c2.31-1.14,0.28-4.59-2.02-3.45
					c-12.75,6.32-24.41,14.74-34.44,24.83C689.33,240.54,692.16,243.37,693.98,241.54L693.98,241.54z"/>
			</g>
		</g>
		<g>
			<g>
				<path class="st2" d="M952.7,329.04c7.97,20.14,14.62,40.81,19.86,61.83c1.48,5.93,2.84,11.89,4.1,17.86
					c0.53,2.52,4.39,1.45,3.86-1.06c-4.46-21.2-10.3-42.1-17.52-62.53c-2.04-5.76-4.18-11.48-6.43-17.16c-0.4-1-1.34-1.71-2.46-1.4
					C953.15,326.84,952.3,328.03,952.7,329.04L952.7,329.04z"/>
			</g>
		</g>
		<g>
			<g>
				<path class="st2" d="M866.14,175.13c15.21-1.62,30.54-2.35,45.84-1.72c13.22,0.55,26.4,2.13,39.3,5.13
					c11.55,2.69,22.86,6.51,33.55,11.65c10.11,4.86,19.69,10.85,28.44,17.87c8.86,7.11,16.89,15.2,24.11,23.97
					c7.55,9.18,14.17,19.11,20.07,29.43c2.96,5.17,5.75,10.44,8.59,15.68c2.79,5.15,5.46,10.36,8.02,15.63
					c5.59,11.47,10.68,23.17,15.27,35.07c4.84,12.54,9.13,25.29,12.76,38.23c3.66,13.03,6.66,26.27,8.73,39.65
					c1.99,12.79,3.1,25.75,2.95,38.71c-0.14,12.09-1.39,24.19-4.37,35.93c-2.8,11.02-7.13,21.63-13.37,31.15
					c-3.08,4.71-6.62,9.1-10.57,13.12c-1.82,1.86-3.73,3.87-5.86,5.33c-1.8,1.23-3.69,2.33-5.63,3.32
					c-8.45,4.3-18.22,6.55-27.76,7.69c-11.81,1.41-23.77,1.33-35.62,0.57c-13.42-0.86-26.77-2.64-40.02-4.92
					c-14.08-2.41-28.06-5.39-41.95-8.7c-13.92-3.32-27.76-6.98-41.53-10.87c-12.63-3.56-25.21-7.31-37.76-11.16
					c-5.46-1.68-10.92-3.37-16.38-5.07c0.49,0.64,0.98,1.29,1.47,1.93c1.67-25.68,2.88-51.4,2.93-77.14
					c0.01-6.87-0.05-13.73-0.19-20.6c-0.67,0.67-1.33,1.33-2,2c24.18,0.01,48.35,0.91,72.47,2.48c23.86,1.55,47.67,3.75,71.46,6.19
					c13.68,1.41,27.36,2.89,41.03,4.39c1.08,0.12,2-1,2-2c0-1.18-0.92-1.88-2-2c-24.18-2.65-48.37-5.27-72.6-7.45
					c-23.77-2.14-47.58-3.85-71.42-4.79c-13.64-0.54-27.29-0.82-40.94-0.82c-1.07,0-2.02,0.92-2,2c0.49,24.8-0.08,49.6-1.37,74.36
					c-0.41,7.79-0.87,15.58-1.38,23.37c-0.06,0.89,0.67,1.68,1.47,1.93c11.91,3.71,23.83,7.38,35.79,10.92
					c13.42,3.97,26.88,7.77,40.42,11.3c14.07,3.67,28.21,7.06,42.45,9.99c13.94,2.87,27.98,5.29,42.12,6.98
					c12.76,1.52,25.63,2.45,38.49,2.14c10.9-0.26,21.95-1.37,32.45-4.43c4.58-1.33,9.07-3.06,13.28-5.3
					c1.91-1.02,3.78-2.13,5.53-3.4c2.36-1.71,4.47-3.93,6.49-6.03c8.09-8.4,14.39-18.34,18.91-29.07
					c4.64-11.02,7.35-22.71,8.78-34.56c1.52-12.69,1.51-25.53,0.5-38.26c-1.06-13.48-3.22-26.87-6.14-40.06
					c-2.97-13.44-6.75-26.7-11.13-39.75c-4.26-12.69-9.12-25.18-14.48-37.44c-4.89-11.19-10.22-22.2-16.04-32.94
					c-5.83-10.76-11.64-21.5-18.59-31.59c-6.66-9.68-14.12-18.84-22.48-27.1c-8.15-8.05-17.17-15.25-26.88-21.33
					c-9.93-6.21-20.59-11.21-31.65-15.04c-12.08-4.19-24.61-6.9-37.28-8.55c-14.25-1.85-28.65-2.27-43-1.71
					c-7.77,0.3-15.53,0.9-23.27,1.72c-1.07,0.11-2,0.84-2,2C864.14,174.12,865.06,175.24,866.14,175.13L866.14,175.13z"/>
			</g>
		</g>
		<g>
			<g>
				<path class="st2" d="M832.05,471c-2.6-0.64-5.29-0.4-7.91-0.11c-3.49,0.39-6.96,0.83-10.48,0.87
					c-11.49,0.14-22.33-3.94-32.11-9.72c-1.59-0.94-3.06-2.27-4.93-2.59c-1.64-0.28-3.21,0.08-4.7,0.76
					c-2.91,1.33-5.05,3.81-7.64,5.61c-2.1,1.46-0.1,4.93,2.02,3.45c2.25-1.56,4.15-3.6,6.51-5.01c0.88-0.53,1.94-1.07,3-0.92
					c0.48,0.07,0.89,0.3,1.28,0.57c0.87,0.6,1.74,1.17,2.66,1.71c5.69,3.35,11.76,6.19,18.13,8c4.7,1.34,9.58,2.08,14.46,2.14
					c3.51,0.04,6.99-0.31,10.47-0.72c1.56-0.18,3.12-0.37,4.69-0.44c0.68-0.03,1.36-0.03,2.04,0.02c0.14,0.01,0.28,0.03,0.41,0.03
					c0.59,0.04-0.21-0.05,0.14,0.01c0.3,0.05,0.6,0.11,0.9,0.18C833.48,475.47,834.55,471.61,832.05,471L832.05,471z"/>
			</g>
		</g>
		<g>
			<g>
				<path class="st2" d="M778.56,465.13c-1.93,3.67-4.67,6.22-8.52,7.99c-0.07,0.03-0.72,0.31-0.37,0.17
					c-0.23,0.09-0.46,0.18-0.69,0.27c-0.46,0.17-0.93,0.32-1.4,0.46c-0.96,0.28-1.94,0.49-2.93,0.64c-0.32,0.05,0.31-0.04,0,0
					c-0.12,0.01-0.24,0.03-0.36,0.04c-0.21,0.02-0.42,0.04-0.62,0.05c-0.53,0.04-1.07,0.06-1.6,0.06c-0.44,0-0.88-0.02-1.32-0.05
					c-0.23-0.02-0.46-0.04-0.7-0.06c-0.12-0.01-0.23-0.03-0.35-0.04c-0.25-0.03,0.32,0.05-0.07-0.01c-0.9-0.15-1.78-0.34-2.65-0.61
					c-0.42-0.13-0.84-0.28-1.26-0.45c0.4,0.16-0.17-0.08-0.28-0.13c-0.22-0.11-0.44-0.21-0.66-0.33c-0.36-0.19-0.71-0.39-1.05-0.61
					c-0.18-0.12-0.36-0.24-0.54-0.36c-0.46-0.31,0.05,0.07-0.3-0.22c-0.68-0.57-1.31-1.18-1.86-1.87c0.27,0.34-0.1-0.14-0.17-0.24
					c-0.12-0.18-0.24-0.36-0.36-0.54c-0.23-0.37-0.43-0.76-0.63-1.15c-0.05-0.1-0.09-0.2-0.14-0.3c0.16,0.36,0.04,0.09,0.01,0.01
					c-0.08-0.21-0.16-0.42-0.23-0.64c-0.16-0.47-0.29-0.95-0.39-1.44c-0.04-0.21-0.08-0.41-0.12-0.62c-0.07-0.39-0.02-0.1-0.01-0.02
					c-0.02-0.12-0.03-0.25-0.04-0.37c-0.05-0.55-0.08-1.09-0.07-1.64c0.01-1.26,0.11-2.09,0.33-3.17
					c1.53-7.55,6.52-14.17,11.5-19.82c1.7-1.92-1.12-4.76-2.83-2.83c-5.11,5.8-10.06,12.41-12.15,19.98
					c-1.28,4.63-1.29,9.84,1.32,14.03c4.69,7.56,15.16,8.99,22.99,6.12c5.09-1.87,9.42-5.43,11.97-10.26
					C783.21,464.87,779.76,462.85,778.56,465.13L778.56,465.13z"/>
			</g>
		</g>
		<g>
			<g>
				<path class="st2" d="M745.18,465.27c-3.02-2.01-5.84-4.62-7.26-8.03c-1.1-2.64-1.25-5.6-0.72-8.38
					c1.29-6.75,5.45-12.8,9.66-18.07c2.44-3.06,5.06-5.97,7.72-8.84c1.75-1.89-1.08-4.72-2.83-2.83
					c-5.24,5.67-10.46,11.56-14.3,18.29c-3.53,6.18-6.13,13.85-3.41,20.83c1.75,4.49,5.16,7.86,9.12,10.48
					C745.31,470.15,747.31,466.69,745.18,465.27L745.18,465.27z"/>
			</g>
		</g>
		<g>
			<g>
				<path class="st2" d="M735.2,447.75c-2.24-1.81-4.07-4-4.81-6.83c-0.65-2.46-0.39-5.04,0.26-7.48
					c1.58-5.94,5.14-11.25,8.56-16.28c1.81-2.66,3.68-5.28,5.4-8.01c1.37-2.19-2.09-4.2-3.45-2.02
					c-3.41,5.42-7.36,10.47-10.47,16.08c-3.03,5.46-5.65,11.87-4.28,18.21c0.79,3.68,3.09,6.81,5.98,9.15
					c0.84,0.68,2.01,0.82,2.83,0C735.9,449.87,736.04,448.43,735.2,447.75L735.2,447.75z"/>
			</g>
		</g>
		<g>
			<g>
				<path class="st2" d="M733.94,415.48c-6.7,2.82-13.01,6.56-19.61,9.59c-4,1.84-8.07,3.54-12.27,4.85
					c-3.61,1.12-6.88,1.98-10.57,1.68c-0.14-0.01-0.65-0.09-0.24-0.02c-0.19-0.03-0.39-0.06-0.58-0.11
					c-0.37-0.08-0.73-0.19-1.09-0.3c-0.16-0.05-0.54-0.22-0.17-0.05c-0.18-0.08-0.36-0.17-0.54-0.27c-0.15-0.08-0.3-0.18-0.44-0.27
					c-0.38-0.23,0.12,0.13-0.13-0.08c-0.26-0.23-0.5-0.47-0.73-0.73c-0.21-0.24,0.14,0.25-0.09-0.14c-0.09-0.16-0.19-0.31-0.28-0.46
					c-0.07-0.12-0.31-0.64-0.14-0.25c-0.08-0.18-0.14-0.37-0.2-0.56c-0.14-0.43-0.24-0.88-0.32-1.33c-0.07,0.51-0.13,1.03-0.2,1.54
					c5.15-7.32,12.53-13.02,20.07-17.71c8.66-5.4,18.05-9.65,27.78-12.73c4.6-1.46,9.3-2.65,14.06-3.46
					c2.18-0.37,4.38-0.66,6.59-0.84c2.05-0.16,4.31-0.43,6.36-0.18c1.31,0.16,2.67,0.64,3.94,0.99c1.53,0.41,3.05,0.86,4.56,1.33
					c2.89,0.9,5.75,1.9,8.59,2.96c5.77,2.16,11.44,4.56,17.12,6.96c12.69,5.35,25.55,10.66,39.24,12.81
					c1.07,0.17,2.15-0.27,2.46-1.4c0.26-0.95-0.32-2.29-1.4-2.46c-20.3-3.19-38.49-13.23-57.58-20.22
					c-4.74-1.73-9.55-3.29-14.45-4.49c-3.67-0.9-7.62-0.48-11.35-0.06c-8.08,0.92-16.01,2.95-23.66,5.69
					c-8.07,2.89-15.91,6.54-23.24,10.99c-6.69,4.06-13.12,8.82-18.41,14.62c-1.2,1.32-2.34,2.7-3.4,4.14
					c-0.67,0.9-1.13,1.58-0.92,2.76c0.1,0.53,0.24,1.04,0.42,1.54c0.75,2.02,2.15,3.75,4.12,4.69c4.52,2.17,10.1,0.94,14.69-0.38
					c11.02-3.18,21.02-8.98,31.27-13.96c0.38-0.18,0.76-0.36,1.14-0.54c0.22-0.1,1.25-0.55,0.65-0.3c0.99-0.42,1.71-1.32,1.4-2.46
					C736.14,415.94,734.94,415.06,733.94,415.48L733.94,415.48z"/>
			</g>
		</g>
		<g>
			<g>
				<path class="st2" d="M778.36,601.53c-1.25,7.46-1.06,15.19,1.63,22.33c2.45,6.48,6.64,12.1,11.85,16.63
					c11.66,10.11,27.08,15.28,41.93,18.51c9.46,2.06,19.09,3.23,28.71,4.27c9.96,1.09,19.96,1.88,29.97,2.31
					c16.73,0.72,33.54,0.4,50.19-1.45c13.63-1.52,27.14-4.04,40.33-7.78c11.38-3.22,22.47-7.35,33.29-12.1
					c9.87-4.33,19.48-9.2,29.05-14.15c9.36-4.85,18.67-9.78,28.2-14.3c5.12-2.43,10.8-4.27,14.95-8.26
					c4.46-4.29,6.83-10.28,7.78-16.3c2.06-13.08-0.83-26.7-4.34-39.29c-0.66-2.36-1.36-4.7-2.07-7.03
					c-0.75-2.45-4.62-1.41-3.86,1.06c3.51,11.43,6.66,23.24,6.91,35.26c0.12,5.94-0.44,12.26-3.08,17.63
					c-1.25,2.54-2.87,4.75-5.02,6.59c-2.17,1.86-4.76,2.95-7.34,4.11c-9.43,4.25-18.62,8.98-27.79,13.74
					c-9.25,4.81-18.49,9.64-27.92,14.06c-10.06,4.71-20.21,8.88-30.81,12.35c-12.15,3.98-24.63,6.94-37.26,8.91
					c-15.23,2.38-30.68,3.32-46.09,3.27c-19.48-0.06-38.95-1.68-58.25-4.26c-15.49-2.07-31.48-5.73-45.2-13.47
					c-5.82-3.28-11.3-7.42-15.39-12.75c-3.98-5.19-6.47-11.42-7.02-17.95c-0.31-3.64-0.11-7.32,0.49-10.92
					c0.18-1.06-0.28-2.15-1.4-2.46C779.86,599.87,778.54,600.46,778.36,601.53L778.36,601.53z"/>
			</g>
		</g>
		<g>
			<g>
				<path class="st2" d="M884.51,762.98c3.96,2.28,7.36,5.56,10.67,8.67c3.42,3.2,6.7,6.56,10.18,9.69c1.91,1.72,4.75-1.1,2.83-2.83
					c-3.56-3.2-6.91-6.63-10.41-9.91c-3.48-3.26-7.09-6.69-11.25-9.08C884.29,758.24,882.27,761.7,884.51,762.98L884.51,762.98z"/>
			</g>
		</g>
		<g>
			<g>
				<path class="st2" d="M904.84,780.46c3.25,21.78,6,43.64,8.49,65.52c2.51,22.11,4.76,44.24,6.98,66.38
					c1.27,12.7,2.53,25.4,3.82,38.1c0.11,1.07,0.84,2,2,2c1,0,2.11-0.92,2-2c-2.28-22.52-4.48-45.05-6.8-67.56
					c-2.29-22.15-4.72-44.28-7.52-66.37c-1.57-12.4-3.26-24.78-5.1-37.13c-0.16-1.07-1.51-1.66-2.46-1.4
					C905.09,778.32,904.68,779.39,904.84,780.46L904.84,780.46z"/>
			</g>
		</g>
	</g>
</g>
</svg>
